<svg width="406" height="287" viewBox="0 0 406 287" fill="none" xmlns="http://www.w3.org/2000/svg">
<g clip-path="url(#clip0_103_21)">
<path opacity="0.1" d="M134.69 286.839C154.42 286.839 170.414 284.27 170.414 281.1C170.414 277.931 154.42 275.362 134.69 275.362C114.96 275.362 98.9664 277.931 98.9664 281.1C98.9664 284.27 114.96 286.839 134.69 286.839Z" fill="#16B97A"/>
<path opacity="0.1" d="M328.88 287C353.499 287 373.458 284.431 373.458 281.262C373.458 278.093 353.499 275.524 328.88 275.524C304.26 275.524 284.302 278.093 284.302 281.262C284.302 284.431 304.26 287 328.88 287Z" fill="#16B97A"/>
<path opacity="0.1" d="M5.07407 124.005H42.2827V174.725H7.79809C7.70643 175.245 7.61844 175.77 7.52312 176.294H42.2827V217.199C42.2204 217.18 42.1654 217.158 42.1067 217.136C41.1242 216.748 40.149 216.337 39.1737 215.897L38.5505 215.615C37.5728 215.153 36.5952 214.664 35.6175 214.148C35.2765 213.969 34.9356 213.782 34.5983 213.591C29.1707 210.55 24.2401 206.697 19.9773 202.166C19.8527 202.045 19.7354 201.916 19.6107 201.799C19.0168 201.154 18.4338 200.501 17.8692 199.834L17.246 199.1C16.5787 198.283 15.9335 197.443 15.3065 196.592C15.2149 196.468 15.1269 196.343 15.0316 196.226C12.4819 192.69 10.3648 188.862 8.72564 184.823C8.67432 184.702 8.63032 184.57 8.58266 184.456C8.07916 183.16 7.6331 181.853 7.24448 180.533C7.07584 179.979 6.91452 179.433 6.7752 178.857C6.72388 178.688 6.67988 178.523 6.63955 178.358C4.55713 170.23 4.31149 161.785 4.31149 153.4C4.31149 152.421 4.31149 151.438 4.31149 150.467C4.31149 147.075 4.35182 143.661 4.41048 140.251C4.41048 139.368 4.44714 138.488 4.46547 137.6C4.5168 135.349 4.59013 133.098 4.68545 130.847C4.70745 130.22 4.73678 129.596 4.76977 128.973C4.76977 128.614 4.7881 128.254 4.82477 127.895C4.91276 126.59 4.98608 125.295 5.07407 124.005Z" fill="#16B97A"/>
<path opacity="0.1" d="M42.2827 67.5316H21.8728C25.1905 62.3381 28.8155 57.3475 32.7285 52.5865C35.7605 48.8612 38.9611 45.2313 42.2827 41.7333V67.5316Z" fill="#16B97A"/>
<path opacity="0.1" d="M42.2827 69.1009V122.435H5.19139C5.19139 122.281 5.21705 122.124 5.22805 121.97C5.26105 121.548 5.29404 121.126 5.33071 120.708C5.37104 120.217 5.41503 119.722 5.46269 119.242C5.51035 118.761 5.56168 118.175 5.61667 117.643C5.67167 117.111 5.72299 116.572 5.78532 116.041C5.84765 115.509 5.90264 114.977 5.96863 114.449C6.03462 113.921 6.09329 113.386 6.16294 112.858C6.21794 112.418 6.2766 111.982 6.33525 111.542C6.41958 110.922 6.50757 110.299 6.60289 109.683C6.60289 109.591 6.62856 109.496 6.64322 109.408C7.31238 104.899 8.22415 100.429 9.37457 96.0174C10.5788 91.3901 12.1165 86.8561 13.9757 82.451C15.9517 77.8427 18.2652 73.3866 20.8975 69.1192L42.2827 69.1009Z" fill="#16B97A"/>
<path opacity="0.1" d="M51.166 124.001V174.725H130.639V124.001H51.166ZM51.166 176.29V219.85C51.6206 219.945 52.0716 220.037 52.5188 220.114C53.1274 220.231 53.7324 220.337 54.352 220.429C54.4693 220.447 54.5903 220.466 54.7186 220.477C54.9606 220.517 55.2099 220.55 55.4518 220.583C56.0641 220.667 56.6727 220.737 57.2849 220.792C57.5746 220.821 57.8679 220.847 58.1612 220.869L58.8688 220.924C59.2537 220.953 59.635 220.975 60.0126 220.986C60.2473 220.986 60.4819 221.008 60.7239 221.016C60.9072 221.016 61.0905 221.016 61.2811 221.016C61.4718 221.016 61.7431 221.016 61.9741 221.016C62.2894 221.016 62.6047 221.016 62.9163 221.016H63.3379C63.6532 221.016 63.9685 221.016 64.2801 220.986H64.3021C64.5184 220.986 64.7384 220.986 64.9584 220.957C65.0194 220.961 65.0806 220.961 65.1417 220.957C65.325 220.957 65.5083 220.957 65.6843 220.931H65.8126L67.0408 220.836C67.4441 220.799 67.851 220.752 68.2617 220.708L69.0976 220.609C72.4983 220.132 75.8612 219.417 79.1614 218.467C86.5745 216.399 93.8263 213.507 101.236 211.387C110.816 208.656 121.4 207.314 130.657 210.654V176.29H51.166ZM130.639 67.5316V0.00367697C121.938 -0.0906002 113.261 0.927178 104.818 3.03229C84.6937 8.08855 66.6375 19.0554 51.166 33.0618V67.5279H55.1549V69.0936H51.166V122.435H130.639V69.0972H71.5319V67.5316H130.639ZM232.718 44.7216C227.739 44.5456 222.79 42.969 218.313 40.5343C209.753 35.8778 202.915 28.6875 195.275 22.6193C179.4 9.98051 159.712 2.35397 139.515 0.462003V67.5316H252.967L253.249 67.2346L232.718 44.7216ZM243.053 42.8883L254.012 54.9148V39.735C250.342 40.1897 247.126 41.2713 243.068 42.8736L243.053 42.8883ZM254.012 230.666V176.29H230.661C230.599 176.059 230.537 175.825 230.463 175.59C230.533 175.825 230.592 176.059 230.658 176.29H139.53V215.615C140.395 216.256 141.249 216.931 142.096 217.617C143.009 218.35 143.911 219.124 144.816 219.883L145.729 220.638C146.166 221.005 146.605 221.371 147.049 221.716C147.929 222.43 148.817 223.134 149.714 223.828C150.158 224.195 150.613 224.525 151.064 224.869C158.223 230.343 165.775 235.283 173.659 239.649C175.426 240.627 177.209 241.582 179.008 242.513C180.207 243.125 181.413 243.734 182.623 244.324C184.441 245.212 186.274 246.067 188.122 246.891C205.158 254.539 223.172 259.787 241.649 262.485C245.753 263.091 249.872 263.568 254.008 263.915V230.663H254.374L254.012 230.666ZM139.53 69.0972V122.435H254.026V69.0972H139.53ZM139.53 124.001V174.725H254.026V124.001H139.53ZM262.913 39.669V56.6014L276.9 41.253C272.266 40.505 267.603 39.9709 262.913 39.6507V39.669ZM262.913 124.019V174.725H374.275V124.001L262.913 124.019ZM373.868 234.692L374.26 176.29H262.913V264.498C270.086 264.799 277.27 264.714 284.434 264.241H284.559C287.98 264.026 291.386 263.713 294.776 263.303H294.853C312.939 261.198 330.624 256.478 347.354 249.293M395.748 132.354C395.33 131.367 394.894 130.388 394.45 129.42C393.622 127.587 392.746 125.805 391.844 124.023H383.155V174.725H405.123C405.112 160.366 401.479 145.7 395.759 132.335L395.748 132.354ZM383.155 176.309V226.541C389.343 220.609 394.571 213.822 398.337 206.063C402.864 196.721 404.936 186.605 405.104 176.301L383.155 176.309ZM383.155 109.239V122.439H391.03C388.647 117.895 386.022 113.483 383.166 109.221L383.155 109.239ZM307.63 49.6202C307.051 49.4002 306.472 49.1765 305.889 48.9602C299.741 46.6896 293.458 44.8013 287.077 43.3063L265.674 66.7983L265.263 67.2346L265.538 67.5352H341.715C331.106 60.2315 319.668 54.2117 307.641 49.6019L307.63 49.6202ZM343.948 69.1156H264.475L262.913 70.5455V122.435H276.603H276.625H374.29V97.3008C365.455 86.6147 355.258 77.1328 343.959 69.0972L343.948 69.1156Z" fill="#16B97A"/>
<path opacity="0.1" d="M42.2827 96.0028V122.435H5.19139C5.19139 122.281 5.21705 122.124 5.22805 121.97C5.26105 121.548 5.29404 121.126 5.33071 120.708C5.37104 120.217 5.41503 119.722 5.46269 119.242C5.51035 118.761 5.56168 118.175 5.61667 117.643C5.67167 117.111 5.72299 116.572 5.78532 116.041C5.84765 115.509 5.90264 114.977 5.96863 114.449C6.03462 113.921 6.09329 113.386 6.16294 112.858C6.21794 112.418 6.2766 111.982 6.33525 111.542C6.41958 110.922 6.50757 110.299 6.60289 109.683C6.60289 109.591 6.62856 109.496 6.64322 109.408C7.31238 104.899 8.22415 100.429 9.37457 96.0174L42.2827 96.0028Z" fill="#16B97A"/>
<path opacity="0.1" d="M5.07407 124.005H42.2827V174.725H7.79809C7.70643 175.245 7.61844 175.77 7.52312 176.294H42.2827V217.199C42.2204 217.18 42.1654 217.158 42.1067 217.136C41.1242 216.748 40.149 216.337 39.1737 215.897L38.5505 215.615C37.5728 215.153 36.5952 214.664 35.6175 214.148C35.2765 213.969 34.9356 213.782 34.5983 213.591C29.1707 210.55 24.2401 206.697 19.9773 202.166C19.8527 202.045 19.7354 201.916 19.6107 201.799C19.0168 201.154 18.4338 200.501 17.8692 199.834L17.246 199.1C16.5787 198.283 15.9335 197.443 15.3065 196.592C15.2149 196.468 15.1269 196.343 15.0316 196.226C12.4819 192.69 10.3648 188.862 8.72564 184.823C8.67432 184.702 8.63032 184.57 8.58266 184.456C8.07916 183.16 7.6331 181.853 7.24448 180.533C7.07584 179.979 6.91452 179.433 6.7752 178.857C6.72388 178.688 6.67988 178.523 6.63955 178.358C4.55713 170.23 4.31149 161.785 4.31149 153.4C4.31149 152.421 4.31149 151.438 4.31149 150.467C4.31149 147.075 4.35182 143.661 4.41048 140.251C4.41048 139.368 4.44714 138.488 4.46547 137.6C4.5168 135.349 4.59013 133.098 4.68545 130.847C4.70745 130.22 4.73678 129.596 4.76977 128.973C4.76977 128.614 4.7881 128.254 4.82477 127.895C4.91276 126.59 4.98608 125.295 5.07407 124.005Z" fill="#16B97A"/>
<path opacity="0.1" d="M79.1431 76.7347V122.435H51.166V76.7347H55.1549V61.2617H71.5283V76.7347H79.1431Z" fill="#16B97A"/>
<path opacity="0.1" d="M79.143 124.001H51.1697V174.721H79.143V124.001Z" fill="#16B97A"/>
<path opacity="0.1" d="M51.166 176.294H79.143V218.46C75.8429 219.408 72.4799 220.123 69.0792 220.598L68.2433 220.7C67.8327 220.748 67.4258 220.788 67.0225 220.829C66.6192 220.869 66.2012 220.898 65.7943 220.924H65.666C65.49 220.924 65.2993 220.946 65.127 220.95H64.94C64.7201 220.95 64.5001 220.972 64.2801 220.979C63.9685 220.997 63.6569 221.001 63.3379 221.005C63.2023 221.005 63.0739 221.005 62.9383 221.005C62.623 221.005 62.3114 221.005 61.9961 221.005H61.3031C61.1162 221.005 60.9365 221.005 60.7422 221.005L60.0346 220.979C59.668 220.979 59.272 220.939 58.8908 220.913L58.1868 220.862L57.3106 220.781C56.6947 220.726 56.0824 220.656 55.4775 220.572L54.7442 220.469L54.3776 220.418C53.7654 220.323 53.1604 220.22 52.5445 220.103C52.0936 220.026 51.6463 219.93 51.1917 219.839L51.166 176.294Z" fill="#16B97A"/>
<path opacity="0.1" d="M254.026 71.3375H230.958V122.432H254.026V71.3375Z" fill="#16B97A"/>
<path opacity="0.1" d="M254.03 124.001V174.725H139.53V152.846H200.517V165.753H230.958V124.001H254.03Z" fill="#16B97A"/>
<path opacity="0.1" d="M254.393 230.677H254.026V263.952C249.896 263.602 245.777 263.127 241.671 262.525C223.184 259.819 205.163 254.559 188.122 246.898C183.202 244.684 178.382 242.266 173.662 239.646C165.779 235.278 158.225 230.338 151.064 224.866C149.265 223.487 147.489 222.077 145.737 220.634C144.523 219.633 143.317 218.607 142.096 217.609C141.249 216.924 140.395 216.249 139.53 215.604V176.294H230.654C230.592 176.059 230.529 175.825 230.463 175.594C230.533 175.825 230.599 176.059 230.661 176.294H254.026V230.655C254.151 230.659 254.272 230.67 254.393 230.677Z" fill="#16B97A"/>
<path opacity="0.1" d="M314.189 67.5316H299.158V62.8603H305.896V48.9455C306.48 49.1582 307.062 49.377 307.641 49.6019V62.8603H314.189V67.5316Z" fill="#16B97A"/>
<path opacity="0.1" d="M350.404 122.435H276.61C276.61 122.435 276.61 122.435 276.636 122.454L276.603 122.435H262.913V71.3412H266.792V109.107H284.518V86.7409H299.161V69.1009H314.193V86.7556H328.836V109.122H350.404V122.435Z" fill="#16B97A"/>
<path opacity="0.1" d="M262.913 124.001V174.725H350.404V124.001H262.913ZM374.154 234.432L374.275 194.283H350.404V176.316H262.913V264.498C270.086 264.799 277.27 264.714 284.434 264.241H284.559C287.98 264.026 291.386 263.713 294.776 263.303H294.853C312.939 261.198 330.624 256.478 347.354 249.293" fill="#16B97A"/>
<path opacity="0.1" d="M384.709 176.294H405.119C404.939 186.594 402.872 196.71 398.348 206.052C394.582 213.815 389.351 220.601 383.169 226.53V194.264H384.709V176.294Z" fill="#16B97A"/>
<path opacity="0.1" d="M405.13 174.725H384.709V132.335H395.759C401.479 145.7 405.112 160.366 405.13 174.725Z" fill="#16B97A"/>
<path opacity="0.1" d="M254.03 85.5419H241.671V101.561H254.03V85.5419Z" fill="#16B97A"/>
<path opacity="0.1" d="M254.03 118.747H241.671V122.435H254.03V118.747Z" fill="#16B97A"/>
<path opacity="0.1" d="M254.03 124.001H241.671V134.763H254.03V124.001Z" fill="#16B97A"/>
<path opacity="0.1" d="M254.03 151.952H241.671V167.971H254.03V151.952Z" fill="#16B97A"/>
<path opacity="0.1" d="M254.03 185.156H241.671V201.176H254.03V185.156Z" fill="#16B97A"/>
<path opacity="0.1" d="M254.026 230.655C254.151 230.655 254.272 230.655 254.393 230.677H254.026V234.399H241.671V218.361H254.026V230.655Z" fill="#16B97A"/>
<path opacity="0.1" d="M254.026 251.559V263.933C249.896 263.584 245.777 263.108 241.671 262.507V251.559H254.026Z" fill="#16B97A"/>
<path opacity="0.1" d="M192.496 173.548H139.53V174.725H192.496V173.548Z" fill="#16B97A"/>
<path opacity="0.1" d="M192.496 176.29H139.53V180.8H192.496V176.29Z" fill="#16B97A"/>
<path opacity="0.1" d="M192.496 195.584H139.53V202.837H192.496V195.584Z" fill="#16B97A"/>
<path opacity="0.1" d="M192.492 217.62V224.873H151.064C149.265 223.499 147.488 222.089 145.733 220.642C144.519 219.641 143.317 218.614 142.092 217.62H192.492Z" fill="#16B97A"/>
<path opacity="0.1" d="M192.492 239.653V246.898H188.118C183.203 244.681 178.384 242.263 173.662 239.642L192.492 239.653Z" fill="#16B97A"/>
<path opacity="0.1" d="M294.864 128.918H284.438V139.346H294.864V128.918Z" fill="#16B97A"/>
<path opacity="0.1" d="M69.1049 80.3317H58.6781V90.7595H69.1049V80.3317Z" fill="#16B97A"/>
<path opacity="0.1" d="M69.1049 104.553H58.6781V114.981H69.1049V104.553Z" fill="#16B97A"/>
<path opacity="0.1" d="M69.1049 128.775H58.6781V139.203H69.1049V128.775Z" fill="#16B97A"/>
<path opacity="0.1" d="M69.1049 152.993H58.6781V163.421H69.1049V152.993Z" fill="#16B97A"/>
<path opacity="0.1" d="M69.1049 177.214H58.6781V187.642H69.1049V177.214Z" fill="#16B97A"/>
<path opacity="0.1" d="M69.1049 201.436H58.6781V211.864H69.1049V201.436Z" fill="#16B97A"/>
<path opacity="0.1" d="M334.669 128.918H324.242V139.346H334.669V128.918Z" fill="#16B97A"/>
<path opacity="0.1" d="M294.864 154.639H284.438V165.067H294.864V154.639Z" fill="#16B97A"/>
<path opacity="0.1" d="M334.669 154.639H324.242V165.067H334.669V154.639Z" fill="#16B97A"/>
<path opacity="0.1" d="M294.864 180.357H284.438V190.785H294.864V180.357Z" fill="#16B97A"/>
<path opacity="0.1" d="M334.669 180.357H324.242V190.785H334.669V180.357Z" fill="#16B97A"/>
<path opacity="0.1" d="M294.864 206.078H284.438V216.506H294.864V206.078Z" fill="#16B97A"/>
<path opacity="0.1" d="M334.669 206.078H324.242V216.506H334.669V206.078Z" fill="#16B97A"/>
<path opacity="0.1" d="M294.864 231.799H284.438V242.227H294.864V231.799Z" fill="#16B97A"/>
<path opacity="0.1" d="M334.669 231.799H324.242V242.227H334.669V231.799Z" fill="#16B97A"/>
<path opacity="0.1" d="M284.438 264.241V257.517H294.861V263.284L284.438 264.241Z" fill="#16B97A"/>
<path opacity="0.1" d="M6.59923 109.401V115.366H42.2827V109.401H6.59923ZM10.1555 114.992H7.24449V109.767H10.1775L10.1555 114.992ZM13.7081 114.992H10.7751V109.767H13.7081V114.992ZM17.2533 114.992H14.3203V109.767H17.2533V114.992ZM20.8059 114.992H17.8766V109.767H20.8096L20.8059 114.992ZM24.3548 114.992H21.4218V109.767H24.3548V114.992ZM27.9074 114.992H24.9744V109.767H27.9074V114.992ZM31.46 114.992H28.527V109.767H31.46V114.992ZM35.0089 114.992H32.0759V109.767H35.0089V114.992ZM38.5578 114.992H35.6248V109.767H38.5578V114.992ZM42.1067 114.992H39.1737V109.767H42.1067V114.992Z" fill="#16B97A"/>
<path opacity="0.1" d="M6.59923 126.758V132.724H42.2827V126.758H6.59923ZM10.1555 132.346H7.24449V127.136H10.1775L10.1555 132.346ZM13.7081 132.346H10.7751V127.136H13.7081V132.346ZM17.2533 132.346H14.3203V127.136H17.2533V132.346ZM20.8059 132.346H17.8766V127.136H20.8096L20.8059 132.346ZM24.3548 132.346H21.4218V127.136H24.3548V132.346ZM27.9074 132.346H24.9744V127.136H27.9074V132.346ZM31.46 132.346H28.527V127.136H31.46V132.346ZM35.0089 132.346H32.0759V127.136H35.0089V132.346ZM38.5578 132.346H35.6248V127.136H38.5578V132.346ZM42.1067 132.346H39.1737V127.136H42.1067V132.346Z" fill="#16B97A"/>
<path opacity="0.1" d="M6.59923 144.123V150.1H42.2827V144.123H6.59923ZM10.1555 149.711H7.24449V144.497H10.1775L10.1555 149.711ZM13.7081 149.711H10.7751V144.497H13.7081V149.711ZM17.2533 149.711H14.3203V144.497H17.2533V149.711ZM20.8059 149.711H17.8766V144.497H20.8096L20.8059 149.711ZM24.3548 149.711H21.4218V144.497H24.3548V149.711ZM27.9074 149.711H24.9744V144.497H27.9074V149.711ZM31.46 149.711H28.527V144.497H31.46V149.711ZM35.0089 149.711H32.0759V144.497H35.0089V149.711ZM38.5578 149.711H35.6248V144.497H38.5578V149.711ZM42.1067 149.711H39.1737V144.497H42.1067V149.711Z" fill="#16B97A"/>
<path opacity="0.1" d="M6.59923 161.488V167.447H42.2827V161.488H6.59923ZM10.1555 167.076H7.24449V161.859H10.1775L10.1555 167.076ZM13.7081 167.076H10.7751V161.859H13.7081V167.076ZM17.2533 167.076H14.3203V161.859H17.2533V167.076ZM20.8059 167.076H17.8766V161.859H20.8096L20.8059 167.076ZM24.3548 167.076H21.4218V161.859H24.3548V167.076ZM27.9074 167.076H24.9744V161.859H27.9074V167.076ZM31.46 167.076H28.527V161.859H31.46V167.076ZM35.0089 167.076H32.0759V161.859H35.0089V167.076ZM38.5578 167.076H35.6248V161.859H38.5578V167.076ZM42.1067 167.076H39.1737V161.859H42.1067V167.076Z" fill="#16B97A"/>
<path opacity="0.1" d="M6.7532 178.85C6.89619 179.411 7.0575 179.972 7.22615 180.525V179.224H10.1591V184.438H8.58999C8.63765 184.559 8.68531 184.691 8.73297 184.804H42.2827V178.85H6.7532ZM13.7191 184.438H10.7861V179.224H13.7191V184.438ZM17.2643 184.438H14.3313V179.224H17.2643V184.438ZM20.8169 184.438H17.8766V179.224H20.8096L20.8169 184.438ZM24.3658 184.438H21.4328V179.224H24.3658V184.438ZM27.9184 184.438H24.9854V179.224H27.9184V184.438ZM31.471 184.438H28.538V179.224H31.471V184.438ZM35.0199 184.438H32.0869V179.224H35.0199V184.438ZM38.5688 184.438H35.6358V179.224H38.5688V184.438ZM42.1177 184.438H39.1847V179.224H42.1177V184.438Z" fill="#16B97A"/>
<path opacity="0.1" d="M15.0389 196.215C15.1306 196.332 15.2185 196.464 15.3139 196.581H17.2533V199.086C17.4623 199.335 17.6676 199.584 17.8802 199.819V196.567H20.8132V201.799H19.6254C19.7427 201.92 19.8563 202.048 19.992 202.166H42.2937V196.215H15.0389ZM24.3548 201.799H21.4218V196.589H24.3548V201.799ZM27.9074 201.799H24.9744V196.589H27.9074V201.799ZM31.46 201.799H28.527V196.589H31.46V201.799ZM35.0089 201.799H32.0759V196.589H35.0089V201.799ZM38.5578 201.799H35.6248V196.589H38.5578V201.799ZM42.1067 201.799H39.1737V196.589H42.1067V201.799Z" fill="#16B97A"/>
<path opacity="0.1" d="M34.6129 213.576C34.9466 213.767 35.2875 213.943 35.6322 214.134V213.95H38.5651V215.6L39.1884 215.89V213.95H42.1214V217.122C42.1776 217.15 42.2366 217.172 42.2974 217.188V213.576H34.6129Z" fill="#16B97A"/>
<path opacity="0.1" d="M230.463 175.59C230.533 175.825 230.592 176.059 230.658 176.29C230.599 176.059 230.537 175.825 230.463 175.59ZM55.1695 67.5206V69.0862H71.5466V67.5206H55.1695ZM230.463 175.59C230.533 175.825 230.592 176.059 230.658 176.29C230.599 176.059 230.537 175.825 230.463 175.59ZM230.463 175.59C230.533 175.825 230.592 176.059 230.658 176.29C230.599 176.059 230.537 175.825 230.463 175.59Z" fill="#16B97A"/>
<path d="M169.233 139.21C169.233 139.21 167.789 139.008 167.789 136.904C167.789 134.799 166.755 130.869 166.755 130.869C166.755 130.85 165.861 124.023 164.625 122.938C163.389 121.852 161.802 115.48 161.802 115.48C161.802 115.48 161.531 112.022 160.977 111.278C160.424 110.534 159.676 108.711 158.572 106.112C157.469 103.512 152.867 101.712 152.867 101.712C152.867 101.712 144.549 96.8864 142.191 95.3134C141.977 95.1842 141.777 95.0331 141.594 94.8625C141.183 94.3235 139.394 94.3125 139.394 94.3125C139.207 93.1318 139.027 91.7752 138.969 90.5469C138.969 90.4149 138.969 90.2829 138.95 90.1509C141.579 88.5969 143.559 86.1468 144.527 83.2503C144.571 83.111 144.607 82.9643 144.648 82.825C144.805 82.7731 144.95 82.6889 145.073 82.5778C145.196 82.4667 145.295 82.3311 145.363 82.1797C145.575 81.7067 145.579 81.153 145.843 80.713C146.151 80.1924 146.737 79.9137 147.199 79.5214C148.365 78.5314 148.666 76.8631 148.611 75.3451C148.574 74.1168 148.376 72.8775 148.453 71.6565L148.475 71.3485C148.497 71.1652 148.523 70.9819 148.556 70.8059C148.736 69.8965 149.128 69.0386 149.348 68.1366C149.568 67.2346 149.59 66.2189 149.077 65.4416C148.325 64.3013 146.759 64.074 145.385 63.9566C143.826 63.8246 142.433 63.997 141.436 62.7027C140.969 62.0262 140.444 61.3919 139.867 60.807C139.662 60.6164 137.667 59.399 137.667 59.3184C135.721 58.4167 133.514 58.2475 131.453 58.8417C130.419 59.1424 129.444 59.6337 128.395 59.8794C126.133 60.4147 123.53 59.8354 121.609 61.1297C120.539 61.863 119.897 63.029 119.296 64.1656C118.807 65.1018 118.311 66.0368 117.807 66.9706C116.997 68.5069 116.172 70.0689 115.831 71.7702C115.759 72.1404 115.715 72.5154 115.699 72.8921V72.9105C115.699 73.0462 115.699 73.1818 115.699 73.3175V73.4898C115.699 73.6181 115.699 73.7428 115.721 73.8565C115.743 73.9701 115.739 74.0068 115.75 74.0838C115.761 74.1608 115.78 74.3331 115.802 74.4505C115.824 74.5678 115.868 74.7731 115.912 74.9345C115.93 75.0041 115.956 75.0701 115.978 75.1361C116.014 75.2608 116.058 75.3818 116.106 75.5028C116.132 75.5651 116.157 75.6311 116.187 75.6934C116.242 75.8218 116.308 75.9464 116.374 76.0601C116.403 76.1114 116.425 76.1591 116.454 76.2068C116.557 76.3773 116.669 76.5414 116.792 76.6981C117.576 77.6771 118.731 78.3004 119.585 79.217C119.585 79.2537 119.585 79.2904 119.585 79.3234C119.585 79.426 119.585 79.525 119.585 79.6277C119.631 81.672 120.175 83.6743 121.17 85.4604C122.166 87.2465 123.582 88.7623 125.297 89.8759C125.297 90.0152 125.316 90.1582 125.323 90.2975C125.394 91.3859 125.381 92.4782 125.283 93.5645C125.133 93.3886 124.946 93.2486 124.736 93.1546C124.525 93.0607 124.296 93.0153 124.065 93.0218C123.908 93.0141 123.75 93.0277 123.596 93.0622L123.563 93.0365V93.0695C122.757 93.2675 121.763 94.1071 120.813 96.4941C120.813 96.4941 117.925 99.75 115.725 99.6144C113.525 99.4787 107.956 103.002 107.956 103.002C107.956 103.002 102.523 106.53 101.357 110.123C100.705 112.16 99.9238 114.154 99.0177 116.092L92.3012 129.934L91.062 140.915C91.062 140.915 91.7476 145.799 91.6119 146.543C91.4763 147.288 94.4313 154.001 94.4313 154.001C94.4313 154.001 104.194 171.157 108.183 172.037L108.469 171.836C108.64 171.925 108.821 171.992 109.008 172.037L109.829 171.458C109.879 172.104 109.858 172.753 109.767 173.394C109.217 175.088 109.972 186.143 110.933 188.31C111.894 190.477 111.553 218.889 111.553 218.889L111.417 221.397C111.417 221.397 111.417 221.478 111.45 221.617L111.417 222.211L111.516 222.262C111.619 223.058 111.585 223.865 111.417 224.649C111.072 225.749 110.933 228.859 110.933 228.859C110.933 228.859 108.187 246.414 109.488 249.942C110.79 253.469 111.897 257.333 111.897 257.333C111.897 257.333 113.272 261.733 111.963 262.485C110.654 263.237 106.933 264.498 107.699 266.331C108.396 268.025 111.039 272.565 111.432 273.228L111.399 273.577L110.86 279.417C110.947 280.189 111.156 280.941 111.479 281.647C112.07 282.919 113.217 284.239 115.398 284.096C115.765 284.07 116.19 284.026 116.601 283.971C120.594 283.436 125.51 281.654 125.51 281.654C125.255 281.492 125.021 281.299 124.813 281.078C124.617 280.888 124.462 280.66 124.356 280.408C124.251 280.156 124.198 279.885 124.201 279.612C124.26 278.548 122.269 273.481 121.774 272.235C121.697 272.055 121.657 271.952 121.657 271.952C121.657 271.952 126.196 267.208 125.44 263.002C125.44 263.002 120.418 260.069 122.071 258.459C123.724 256.85 126.679 252.226 126.679 252.226C126.679 252.226 126.815 234.938 126.679 232.357C126.538 230.565 126.623 228.763 126.932 226.992C126.987 226.725 127.053 226.464 127.123 226.208C129.41 226.549 131.718 226.724 134.03 226.732C134.874 226.732 135.731 226.732 136.597 226.681C136.597 226.925 136.608 227.189 136.63 227.473C136.82 231.755 137.176 239.264 137.466 242.055C137.876 246.055 140.146 256.835 140.146 256.835C140.146 256.835 135.816 259.614 140.901 266.463C140.901 266.463 140.901 268.946 140.564 269.305C140.203 270.48 139.913 271.675 139.695 272.884C139.482 274.174 139.394 275.48 139.739 276.158C140.564 277.778 145.513 277.646 145.513 277.646L145.634 277.624C146.568 277.528 147.513 277.618 148.412 277.889C149.311 278.16 150.148 278.608 150.873 279.205C152.754 280.715 159.892 280.052 163.756 279.571C165.27 279.381 166.282 279.205 166.282 279.205C166.331 279.033 166.349 278.854 166.333 278.677C166.293 277.727 165.549 275.645 160.504 273.786C160.504 273.786 155.76 270.596 155.826 267.816H155.727H155.177C155.577 267.794 155.833 267.816 155.833 267.816C155.833 267.816 153.975 261.033 154.734 260.483C155.492 259.933 153.219 252.417 153.219 252.417C153.219 252.417 151.918 239.803 151.848 238.92C151.851 238.162 151.966 237.408 152.189 236.683L151.848 229.768C151.848 229.768 151.782 227.469 151.848 226.721C151.837 226.072 151.784 225.424 151.691 224.781C151.658 224.525 151.625 224.257 151.588 223.993C153.366 223.542 154.521 223.124 154.521 223.124L154.316 199.053C155.826 196.119 156.105 189.685 156.097 185.12C156.097 182.186 155.965 180.016 155.965 180.016L158.029 176.646C158.029 176.646 158.506 172.613 157.751 171.729C157.417 171.33 157.568 170.915 157.842 170.574C157.985 170.461 158.136 170.358 158.293 170.266C158.293 170.266 158.271 170.233 158.246 170.186C158.39 170.065 158.543 169.956 158.704 169.859C158.704 169.859 157.971 168.723 158.627 168.242C159.243 168.66 159.793 168.976 160.211 169.232C160.182 169.5 160.152 169.654 160.152 169.654L160.328 169.287C160.731 169.515 160.977 169.654 160.977 169.654C160.977 169.654 164.211 163.212 164.141 162.262C164.071 161.312 166.341 157.312 166.341 157.312C166.341 157.312 166.616 155.211 167.855 154.331C169.094 153.451 168.816 147.075 168.816 147.075C168.816 147.075 169.16 143.753 169.985 142.396C170.81 141.04 169.233 139.21 169.233 139.21ZM107.362 136.383L107.424 137.919C107.058 137.329 106.794 136.904 106.794 136.904L107.362 136.383Z" fill="url(#paint0_linear_103_21)"/>
<path d="M161.153 166.871L160.361 170.244C160.361 170.244 154.019 167.007 152.875 162.893C151.731 158.779 154.789 157.217 154.789 157.217L160.698 159.721L161.153 166.871Z" fill="white"/>
<path opacity="0.1" d="M161.153 166.871L160.361 170.244C160.361 170.244 154.019 167.007 152.875 162.893C151.731 158.779 154.789 157.217 154.789 157.217L160.698 159.721L161.153 166.871Z" fill="black"/>
<path d="M125.558 281.676C125.558 281.676 119.692 283.832 115.659 284.103C113.518 284.246 112.392 282.934 111.813 281.669C111.496 280.966 111.292 280.217 111.208 279.45L111.732 273.639L112.011 270.544L120.579 268.319L121.792 272.029L121.906 272.312C122.394 273.551 124.348 278.592 124.289 279.645C124.287 279.914 124.339 280.181 124.442 280.43C124.545 280.679 124.698 280.905 124.89 281.093C125.087 281.315 125.311 281.511 125.558 281.676Z" fill="white"/>
<path d="M165.626 278.721C165.641 278.897 165.623 279.075 165.575 279.245C165.575 279.245 153.029 281.339 150.462 279.245C149.739 278.633 148.895 278.18 147.986 277.913C147.077 277.647 146.122 277.574 145.183 277.698C145.183 277.698 140.329 277.83 139.519 276.231C139.181 275.56 139.269 274.259 139.478 272.975C139.692 271.773 139.976 270.584 140.329 269.415L140.523 269.261L141.678 268.333L155.199 267.934H155.302C155.236 270.698 159.892 273.87 159.892 273.87C164.838 275.703 165.567 277.775 165.626 278.721Z" fill="white"/>
<path opacity="0.1" d="M165.626 278.721C165.639 278.897 165.62 279.075 165.571 279.245C165.571 279.245 153.029 281.339 150.462 279.245C149.739 278.634 148.896 278.181 147.988 277.914C147.079 277.648 146.125 277.574 145.187 277.698C145.187 277.698 140.329 277.83 139.522 276.231C139.185 275.557 139.269 274.259 139.478 272.975C141.348 273.162 144.299 273.628 145.458 274.739C147.21 276.429 150.18 278.116 152.002 278.248C153.428 278.339 161.96 278.611 165.626 278.721Z" fill="black"/>
<path opacity="0.1" d="M125.558 281.676C125.558 281.676 119.692 283.832 115.659 284.103C113.518 284.246 112.392 282.934 111.817 281.665C113.309 282.167 115.38 282.695 116.469 282.211C117.76 281.639 122.335 281.269 124.901 281.111C125.097 281.325 125.317 281.515 125.558 281.676Z" fill="black"/>
<path d="M134.261 107.934C129.422 106.053 123.197 99.838 124.751 96.9341C125.096 96.2013 125.301 95.4104 125.356 94.6021C125.456 93.5049 125.471 92.4016 125.4 91.3022C125.291 89.5015 125.074 87.709 124.751 85.9343C124.751 85.9343 139.86 86.2753 138.98 88.5009C138.723 89.1535 138.683 90.2865 138.752 91.5552C138.822 92.8238 139.005 94.2575 139.196 95.4711C139.46 97.1358 139.724 98.4044 139.724 98.4044C139.724 98.4044 138.8 99.6987 138.257 99.7684C137.715 99.838 141.205 110.614 134.261 107.934Z" fill="#CF6F80"/>
<path opacity="0.1" d="M121.895 272.312L121.781 272.436C117.265 266.973 111.802 273.782 111.802 273.782L111.721 273.639L112 270.544L120.568 268.319L121.781 272.029L121.895 272.312Z" fill="black"/>
<path opacity="0.1" d="M155.305 268.319C155.305 268.319 152.006 268.249 150.246 269.804C148.486 271.358 139.981 270.141 140.347 269.804C140.456 269.636 140.521 269.445 140.538 269.246L141.693 268.319L155.214 267.919C155.265 268.165 155.305 268.319 155.305 268.319Z" fill="black"/>
<path d="M127.515 225.416C127.27 226.023 127.083 226.653 126.958 227.297C126.652 229.059 126.567 230.852 126.705 232.635C126.841 235.202 126.705 252.402 126.705 252.402C126.705 252.402 123.805 256.989 122.188 258.606C120.572 260.223 125.488 263.127 125.488 263.127C126.221 267.307 121.778 272.029 121.778 272.029C117.261 266.566 111.798 273.379 111.798 273.379C111.798 273.379 108.829 268.245 108.088 266.412C107.347 264.579 110.988 263.31 112.267 262.566C113.547 261.821 112.205 257.432 112.205 257.432C112.205 257.432 111.124 253.586 109.84 250.077C108.557 246.568 111.256 229.101 111.256 229.101C111.256 229.101 111.395 225.999 111.729 224.917C111.897 224.136 111.93 223.333 111.828 222.541C111.806 222.273 111.78 222.05 111.762 221.899C111.743 221.749 111.729 221.679 111.729 221.679L111.78 221.591L113.613 218.174C113.613 218.174 128.395 223.263 127.515 225.416Z" fill="#16B97A"/>
<path d="M155.305 267.915C155.305 267.915 152.006 267.846 150.246 269.382C148.486 270.918 139.981 269.719 140.347 269.382C140.714 269.045 140.684 266.548 140.684 266.548C135.695 259.735 139.951 256.97 139.951 256.97C139.951 256.97 137.722 246.246 137.319 242.267C137.037 239.488 136.688 232.019 136.501 227.755C136.421 225.922 136.373 224.66 136.373 224.66L140.45 223.839L140.974 223.733L150.807 221.76C150.807 221.76 151.078 223.593 151.262 225.093C151.353 225.733 151.404 226.379 151.416 227.025C151.35 227.759 151.416 230.054 151.416 230.054L151.749 236.936C151.531 237.658 151.419 238.408 151.416 239.162C151.482 240.038 152.761 252.585 152.761 252.585C152.761 252.585 154.986 260.072 154.228 260.611C153.469 261.15 155.305 267.915 155.305 267.915Z" fill="#16B97A"/>
<path opacity="0.1" d="M138.98 88.5009C138.723 89.1535 138.683 90.2865 138.752 91.5552C136.729 92.7739 134.402 93.3971 132.04 93.353C129.678 93.3089 127.377 92.5993 125.4 91.3058C125.291 89.504 125.074 87.7102 124.751 85.9343C124.751 85.9343 139.86 86.2679 138.98 88.5009Z" fill="black"/>
<path d="M144.82 80.3977C144.823 81.719 144.615 83.0322 144.204 84.288C143.286 87.1016 141.402 89.4999 138.886 91.059C136.371 92.6181 133.385 93.2376 130.457 92.808C127.529 92.3784 124.847 90.9274 122.885 88.7115C120.923 86.4955 119.807 83.6573 119.736 80.6983C119.736 80.5957 119.736 80.5003 119.736 80.3977C119.707 78.7322 120.011 77.0777 120.628 75.5306C121.246 73.9836 122.165 72.5751 123.333 71.3872C124.501 70.1993 125.893 69.2558 127.429 68.6118C128.965 67.9678 130.614 67.6361 132.28 67.6361C133.945 67.6361 135.594 67.9678 137.13 68.6118C138.666 69.2558 140.059 70.1993 141.226 71.3872C142.394 72.5751 143.314 73.9836 143.931 75.5306C144.549 77.0777 144.852 78.7322 144.824 80.3977H144.82Z" fill="#CF6F80"/>
<path opacity="0.1" d="M134.261 107.934C129.422 106.053 123.197 99.838 124.751 96.9341C125.096 96.2013 125.301 95.4104 125.356 94.6021L131.981 100.047L136.08 103.409L139.196 95.4748C139.46 97.1394 139.724 98.408 139.724 98.408C139.724 98.408 138.8 99.7024 138.257 99.772C137.715 99.8417 141.205 110.614 134.261 107.934Z" fill="black"/>
<path d="M151.394 131.998L145.861 224.946L138.646 225.419L119.963 171.524L123.028 107.538L123.673 94.0192L131.981 100.843L136.083 104.205L139.291 96.0395L145.256 101.239L151.394 131.998Z" fill="#16B97A"/>
<path opacity="0.1" d="M127.515 225.416C127.27 226.023 127.083 226.653 126.958 227.297C121.708 226.486 116.609 224.893 111.831 222.57L111.732 222.519L111.765 221.929L111.784 221.621L113.617 218.203C113.617 218.203 128.395 223.263 127.515 225.416Z" fill="black"/>
<path opacity="0.1" d="M140.534 227.311C139.192 227.54 137.838 227.694 136.479 227.773C136.399 225.94 136.351 224.679 136.351 224.679L140.428 223.857L140.534 227.311Z" fill="black"/>
<path opacity="0.1" d="M151.24 225.111C148.633 225.79 144.607 226.552 141.003 226.076L140.952 223.751L150.785 221.778C150.785 221.778 151.056 223.593 151.24 225.111Z" fill="black"/>
<path opacity="0.1" d="M140.937 226.501C125.906 229.068 112.139 221.709 112.139 221.709L112.271 219.215C112.271 219.215 112.612 190.95 111.666 188.783C110.72 186.616 109.983 175.627 110.519 173.94C111.054 172.254 108.565 146.961 108.565 146.961L108.161 136.695L93.401 130.715L100 116.957C100.892 115.029 101.658 113.045 102.295 111.018C103.443 107.446 108.77 103.937 108.77 103.937C108.77 103.937 114.233 100.432 116.392 100.564C118.551 100.696 121.382 97.4621 121.382 97.4621C123.472 92.1345 125.363 94.5471 125.363 94.5471C125.363 94.8001 125.363 94.5472 125.261 95.3355C124.527 101.184 137.117 119.663 137.297 119.99L138.496 149.198L139.709 186.161L140.937 226.501Z" fill="black"/>
<path d="M140.534 226.501C125.503 229.068 111.732 221.709 111.732 221.709L111.868 219.215C111.868 219.215 112.209 190.95 111.259 188.783C110.31 186.616 109.576 175.627 110.115 173.94C110.654 172.254 108.161 146.961 108.161 146.961L107.754 136.695L92.9868 130.693L99.586 116.935C100.475 115.006 101.242 113.022 101.881 110.996C103.025 107.424 108.356 103.915 108.356 103.915C108.356 103.915 113.818 100.41 115.974 100.542C118.13 100.674 120.964 97.4401 120.964 97.4401C123.057 92.1125 125.363 94.5251 125.363 94.5251C125.363 94.7781 125.143 94.8918 125.261 95.3135C126.874 100.986 136.714 119.641 136.894 119.968L138.107 149.176L139.321 186.139L140.534 226.501Z" fill="white"/>
<path opacity="0.1" d="M136.483 120.8C134.866 120.125 126.302 110.347 126.302 110.347V108.121C125.99 107.388 124.139 107.835 122.636 108.348L123.281 94.8295L124.014 95.4381C125.62 101.107 136.296 120.474 136.483 120.8Z" fill="black"/>
<path d="M136.89 119.99C135.269 119.315 126.705 109.536 126.705 109.536V107.311C126.394 106.577 124.542 107.025 123.039 107.538L123.688 94.0191L124.421 94.6278C126.031 100.296 136.71 119.667 136.89 119.99Z" fill="white"/>
<path opacity="0.1" d="M112.139 168.759C112.341 168.759 122.592 167.681 122.592 167.681C122.592 167.681 128.799 179.887 128.392 182.857C127.985 185.827 127.248 188.456 124.751 187.991C122.254 187.525 111.314 188.357 111.314 188.357L112.139 168.759Z" fill="black"/>
<path d="M111.732 167.949C111.934 167.949 122.185 166.871 122.185 166.871C122.185 166.871 128.388 179.081 127.985 182.047C127.581 185.013 126.837 187.646 124.344 187.18C121.851 186.715 110.907 187.547 110.907 187.547L111.732 167.949Z" fill="white"/>
<path d="M119.457 162.218C119.457 162.218 128.865 167.274 129.066 168.818C129.268 170.362 124.278 168.143 123.2 167.876C122.491 167.705 121.769 167.592 121.041 167.538L113.851 167.733L119.457 162.218Z" fill="#CF6F80"/>
<path opacity="0.1" d="M133.858 121.431C134.405 121.431 134.848 120.987 134.848 120.441C134.848 119.894 134.405 119.451 133.858 119.451C133.311 119.451 132.868 119.894 132.868 120.441C132.868 120.987 133.311 121.431 133.858 121.431Z" fill="black"/>
<path d="M133.858 121.027C134.405 121.027 134.848 120.584 134.848 120.037C134.848 119.491 134.405 119.047 133.858 119.047C133.311 119.047 132.868 119.491 132.868 120.037C132.868 120.584 133.311 121.027 133.858 121.027Z" fill="#3F3D56"/>
<path opacity="0.1" d="M135.68 164.286C136.227 164.286 136.67 163.843 136.67 163.296C136.67 162.749 136.227 162.306 135.68 162.306C135.133 162.306 134.69 162.749 134.69 163.296C134.69 163.843 135.133 164.286 135.68 164.286Z" fill="black"/>
<path d="M135.68 163.879C136.227 163.879 136.67 163.436 136.67 162.889C136.67 162.342 136.227 161.899 135.68 161.899C135.133 161.899 134.69 162.342 134.69 162.889C134.69 163.436 135.133 163.879 135.68 163.879Z" fill="#3F3D56"/>
<path opacity="0.1" d="M134.844 142.858C135.391 142.858 135.834 142.415 135.834 141.868C135.834 141.322 135.391 140.878 134.844 140.878C134.297 140.878 133.854 141.322 133.854 141.868C133.854 142.415 134.297 142.858 134.844 142.858Z" fill="black"/>
<path d="M134.844 142.455C135.391 142.455 135.834 142.012 135.834 141.465C135.834 140.918 135.391 140.475 134.844 140.475C134.297 140.475 133.854 140.918 133.854 141.465C133.854 142.012 134.297 142.455 134.844 142.455Z" fill="#3F3D56"/>
<path d="M157.663 167.333C157.663 167.333 158.337 168.345 157.663 168.818C156.988 169.291 157.729 170.435 157.729 170.435C157.729 170.435 156.046 171.421 156.787 172.309C157.527 173.196 157.058 177.203 157.058 177.203L155.034 180.555C155.034 180.555 155.155 182.714 155.162 185.633C155.162 190.187 154.895 196.589 153.414 199.507L153.619 223.454C153.619 223.454 146.532 226.043 140.6 225.254L139.72 186.828C139.72 186.828 141.003 165.038 141.476 160.858C141.753 158.688 141.866 156.5 141.814 154.313C141.814 154.313 141.612 147.772 140.934 144.736C140.934 144.736 140.201 131.584 140.127 127.943C140.094 126.201 140.186 121.119 140.289 116.286C140.402 111.003 140.53 106.02 140.53 106.02L139.192 95.4308C139.192 95.4308 140.53 95.2951 140.934 95.8341C141.114 96.0029 141.311 96.1539 141.52 96.2851C143.83 97.8471 151.991 102.65 151.991 102.65C151.991 102.65 156.508 104.447 157.589 107.021C158.671 109.595 159.423 111.421 159.947 112.154C160.471 112.887 160.757 116.334 160.757 116.334C160.757 116.334 162.312 122.677 163.525 123.752C164.739 124.826 165.626 131.661 165.626 131.661L154.902 140.094C154.902 140.094 153.96 154.122 153.758 154.665C153.557 155.207 157.663 167.333 157.663 167.333Z" fill="white"/>
<path d="M158.07 167.333C158.07 167.333 158.741 168.345 158.07 168.818C157.399 169.291 158.132 170.435 158.132 170.435C158.132 170.435 156.46 171.432 157.194 172.319C157.927 173.207 157.465 177.214 157.465 177.214L155.441 180.566C155.441 180.566 155.562 182.725 155.573 185.644C155.573 190.198 155.305 196.6 153.824 199.518L154.026 223.465C154.026 223.465 146.928 226.054 141.003 225.265L140.127 186.839C140.127 186.839 141.41 165.049 141.883 160.869C142.16 158.699 142.272 156.511 142.217 154.324C142.217 154.324 142.015 147.783 141.341 144.747C141.341 144.747 140.608 131.595 140.531 127.954C140.498 126.212 140.593 121.13 140.692 116.297C140.805 111.014 140.934 106.031 140.934 106.031L139.167 95.2988C139.167 95.2988 140.934 95.2988 141.341 95.8451C141.52 96.0158 141.716 96.167 141.927 96.2961C144.237 97.8581 152.402 102.661 152.402 102.661C152.402 102.661 156.915 104.458 157.996 107.032C159.078 109.606 159.83 111.432 160.358 112.165C160.885 112.898 161.164 116.345 161.164 116.345C161.164 116.345 162.719 122.688 163.932 123.763C165.146 124.837 166.022 131.657 166.022 131.657L155.298 140.09C155.298 140.09 154.356 154.118 154.151 154.661C153.945 155.204 158.07 167.333 158.07 167.333Z" fill="white"/>
<path opacity="0.1" d="M145.227 109.144L146.195 111.967L141.099 117.1C141.212 111.821 141.341 106.834 141.341 106.834L139.574 96.1018C139.574 96.1018 141.341 96.1018 141.748 96.6481C141.926 96.8184 142.123 96.9684 142.334 97.0954L146.668 109.599L145.227 109.144Z" fill="black"/>
<path d="M144.82 108.334L145.792 111.157L140.696 116.29C140.809 111.007 140.937 106.024 140.937 106.024L139.167 95.2914C139.167 95.2914 140.937 95.2915 141.341 95.8378C141.521 96.0075 141.717 96.1586 141.927 96.2888L146.265 108.788L144.82 108.334Z" fill="white"/>
<path opacity="0.1" d="M144.82 80.3977C144.823 81.719 144.615 83.0322 144.204 84.288C144.135 84.2988 144.064 84.2956 143.996 84.2786C143.928 84.2616 143.864 84.2311 143.808 84.189C143.713 80.889 142.089 77.7907 140.091 75.1544C139.53 74.3585 138.85 73.6536 138.074 73.0645C137.29 72.4757 136.315 72.1999 135.339 72.2908C134.239 72.4411 133.268 73.1891 132.157 73.2845C130.69 73.4055 129.378 72.3898 127.922 72.3385C127.331 72.3441 126.747 72.4759 126.21 72.725C125.673 72.9741 125.196 73.3348 124.81 73.7831C124.045 74.6878 123.477 75.7417 123.142 76.8777C122.565 78.6005 122.251 80.4001 122.21 82.2163C122.192 83.243 122.093 84.53 121.14 84.9039C121.212 84.1489 121.126 83.3872 120.888 82.667C120.65 81.9469 120.265 81.284 119.758 80.7203L119.736 80.6983C119.736 80.5957 119.736 80.5003 119.736 80.3977C119.707 78.7322 120.011 77.0777 120.628 75.5306C121.246 73.9836 122.165 72.5751 123.333 71.3872C124.501 70.1993 125.893 69.2558 127.429 68.6118C128.965 67.9678 130.614 67.6361 132.28 67.6361C133.945 67.6361 135.594 67.9678 137.13 68.6118C138.666 69.2558 140.059 70.1993 141.226 71.3872C142.394 72.5751 143.314 73.9836 143.931 75.5306C144.549 77.0777 144.852 78.7322 144.824 80.3977H144.82Z" fill="black"/>
<path d="M137.473 60.477C135.568 59.5808 133.401 59.4113 131.38 60.0004C130.364 60.301 129.407 60.7887 128.377 61.0343C126.177 61.566 123.611 60.9903 121.723 62.2773C120.674 63.0106 120.044 64.1693 119.457 65.2949L117.99 68.0889C117.191 69.6179 116.385 71.1725 116.051 72.8555C115.717 74.5384 115.919 76.4231 116.986 77.7761C117.763 78.7624 118.911 79.382 119.754 80.3097C120.259 80.8739 120.642 81.5365 120.88 82.2557C121.117 82.975 121.203 83.7355 121.132 84.4896C122.089 84.123 122.181 82.8323 122.203 81.8057C122.244 79.9895 122.558 78.1898 123.134 76.4671C123.469 75.3307 124.037 74.2766 124.802 73.3725C125.189 72.9245 125.666 72.5641 126.203 72.315C126.74 72.0659 127.323 71.9339 127.915 71.9278C129.381 71.9792 130.698 72.9911 132.15 72.8701C133.249 72.7785 134.225 72.0268 135.332 71.8802C136.308 71.7878 137.284 72.0637 138.067 72.6538C138.842 73.242 139.521 73.9471 140.08 74.7438C142.081 77.3801 143.705 80.471 143.801 83.7783C144.215 84.0826 144.813 83.6866 145.018 83.2173C145.223 82.748 145.231 82.198 145.491 81.7507C145.792 81.2337 146.367 80.9587 146.818 80.57C147.962 79.5837 148.248 77.9227 148.204 76.4158C148.16 74.9088 147.867 73.3798 148.153 71.8985C148.325 70.9892 148.714 70.1385 148.926 69.2402C149.139 68.3419 149.165 67.3336 148.662 66.5599C147.929 65.4233 146.385 65.1996 145.04 65.0933C143.511 64.9613 142.144 65.1299 141.168 63.843C140.711 63.1714 140.195 62.5408 139.629 61.9583C139.434 61.7677 137.473 60.5577 137.473 60.477Z" fill="#512E4E"/>
<path opacity="0.1" d="M97.6245 137.798L93.7933 130.715L92.5798 141.645C92.5798 141.645 93.2544 146.499 93.1187 147.244C92.9831 147.988 95.8831 154.661 95.8831 154.661C95.8831 154.661 105.463 171.726 109.375 172.606L122.592 163.16L119.087 158.709C119.087 158.709 117.873 158.236 117.569 158.709C117.569 158.709 111.061 147.511 110.387 146.701C109.712 145.891 109.844 144.274 109.844 144.274C109.844 144.274 108.832 143.196 109.17 142.184C109.507 141.172 107.215 137.663 107.215 137.663L109.305 135.708L97.6245 137.798Z" fill="black"/>
<path d="M93.995 129.908L92.9831 130.715L91.7696 141.645C91.7696 141.645 92.4441 146.499 92.3085 147.244C92.1728 147.988 95.0765 154.661 95.0765 154.661C95.0765 154.661 104.653 171.726 108.565 172.606L121.785 163.16L118.276 158.709C118.276 158.709 117.063 158.236 116.759 158.709C116.759 158.709 110.251 147.511 109.576 146.701C108.902 145.891 109.038 144.274 109.038 144.274C109.038 144.274 108.026 143.196 108.363 142.184C108.7 141.172 106.405 137.663 106.405 137.663L108.495 135.708L93.995 129.908Z" fill="white"/>
<path opacity="0.1" d="M156.787 172.727C157.52 173.618 157.058 177.618 157.058 177.618L155.034 180.969C155.034 180.969 155.155 183.132 155.162 186.047L151.76 187.111C151.453 187.207 151.127 187.228 150.809 187.172C150.492 187.117 150.193 186.986 149.936 186.791C149.68 186.596 149.473 186.343 149.335 186.052C149.196 185.761 149.129 185.442 149.139 185.12L149.725 166.196L157.663 169.232C156.988 169.702 157.729 170.853 157.729 170.853C157.729 170.853 156.046 171.836 156.787 172.727Z" fill="black"/>
<path d="M157.194 172.32C157.927 173.211 157.465 177.214 157.465 177.214L155.441 180.566C155.441 180.566 155.562 182.725 155.573 185.644L152.108 186.726C151.807 186.819 151.488 186.84 151.178 186.785C150.867 186.73 150.574 186.602 150.323 186.411C150.072 186.22 149.87 185.972 149.734 185.688C149.598 185.403 149.533 185.09 149.542 184.775L150.132 165.793L158.073 168.829C157.395 169.298 158.136 170.446 158.136 170.446C158.136 170.446 156.46 171.432 157.194 172.32Z" fill="white"/>
<path d="M159.822 163.3C159.822 163.3 159.283 166.743 157.934 166.944C156.585 167.146 155.98 172.514 154.635 172.323C153.289 172.133 154.18 167.333 154.228 166.402C154.275 165.47 152.761 161.613 153.894 160.737C155.027 159.86 158.612 160.737 158.612 160.737L159.822 163.3Z" fill="#CF6F80"/>
<path opacity="0.1" d="M162.693 136.786L165.237 131.653C165.237 131.653 166.249 135.565 166.249 137.655C166.249 139.745 167.664 139.951 167.664 139.951C167.664 139.951 169.215 141.784 168.398 143.119C167.58 144.453 167.25 147.775 167.25 147.775C167.25 147.775 167.518 154.115 166.304 154.991C165.091 155.867 164.838 157.961 164.838 157.961C164.838 157.961 162.609 161.939 162.678 162.885C162.748 163.831 159.577 170.237 159.577 170.237C159.577 170.237 161.127 162.277 152.09 158.837C152.09 158.837 152.021 156.135 152.695 155.394C153.37 154.654 154.422 154.317 153.762 150.573C153.102 146.829 153.571 142.356 153.571 141.458C153.571 140.559 155.595 134.957 155.595 134.957L162.693 136.786Z" fill="black"/>
<path d="M163.793 130.92L166.015 131.653C166.015 131.653 167.03 135.565 167.03 137.655C167.03 139.745 168.445 139.951 168.445 139.951C168.445 139.951 169.996 141.784 169.178 143.119C168.361 144.453 168.035 147.775 168.035 147.775C168.035 147.775 168.302 154.115 167.089 154.991C165.875 155.867 165.604 157.961 165.604 157.961C165.604 157.961 163.379 161.939 163.448 162.885C163.518 163.831 160.343 170.237 160.343 170.237C160.343 170.237 161.897 162.277 152.856 158.837C152.856 158.837 152.79 156.135 153.465 155.394C154.14 154.654 155.192 154.317 154.532 150.573C153.872 146.829 154.341 142.356 154.341 141.458C154.341 140.559 156.365 134.957 156.365 134.957L163.793 130.92Z" fill="white"/>
<path opacity="0.1" d="M114.72 263.97C114.72 263.97 118.262 261.744 120.586 263.361C122.911 264.978 114.72 263.97 114.72 263.97Z" fill="black"/>
<path opacity="0.1" d="M142.239 257.088C142.239 257.088 145.374 256.684 148.006 259.519C150.638 262.353 142.239 257.088 142.239 257.088Z" fill="black"/>
<g opacity="0.1">
<path d="M146.825 79.767C146.375 80.1557 145.795 80.4344 145.495 80.9514C145.238 81.395 145.231 81.9413 145.025 82.418C144.82 82.8947 144.222 83.2833 143.808 82.9827C143.713 79.6827 142.085 76.5844 140.087 73.9445C139.528 73.1478 138.849 72.4427 138.074 71.8545C137.289 71.2645 136.313 70.9886 135.335 71.0809C134.236 71.2312 133.268 71.9792 132.157 72.0708C130.69 72.1955 129.374 71.1799 127.919 71.1285C127.327 71.1344 126.744 71.2667 126.208 71.5165C125.671 71.7663 125.195 72.1278 124.81 72.5768C124.044 73.4796 123.476 74.5325 123.142 75.6678C122.565 77.3906 122.252 79.1902 122.21 81.0064C122.188 82.0293 122.093 83.3053 121.147 83.6866C121.169 83.9575 121.169 84.2298 121.147 84.5006C122.1 84.134 122.196 82.8433 122.218 81.8167C122.259 80.0005 122.572 78.2008 123.149 76.4781C123.484 75.3417 124.052 74.2877 124.817 73.3835C125.203 72.9357 125.68 72.5752 126.216 72.3261C126.752 72.077 127.335 71.945 127.926 71.9388C129.392 71.9902 130.712 73.0022 132.164 72.8812C133.264 72.7895 134.239 72.0378 135.343 71.8912C136.32 71.7989 137.297 72.0748 138.081 72.6648C138.857 73.253 139.536 73.9581 140.094 74.7548C142.092 77.3911 143.72 80.482 143.815 83.7893C144.23 84.0936 144.827 83.6976 145.033 83.2283C145.238 82.759 145.245 82.209 145.502 81.7617C145.803 81.2447 146.382 80.9697 146.833 80.581C147.977 79.5947 148.263 77.9337 148.219 76.4268C148.219 76.3791 148.219 76.3314 148.219 76.2874C148.149 77.5928 147.801 78.9237 146.825 79.767Z" fill="black"/>
<path d="M119.761 79.5067C118.918 78.5791 117.767 77.9594 116.993 76.9768C116.342 76.1069 115.97 75.0597 115.926 73.9738C115.811 75.3308 116.19 76.6838 116.993 77.7834C117.767 78.7697 118.918 79.3894 119.761 80.317C120.571 81.2244 121.057 82.3746 121.143 83.5877C121.2 82.8494 121.106 82.1074 120.869 81.4062C120.631 80.705 120.254 80.0589 119.761 79.5067Z" fill="black"/>
<path d="M148.934 68.4372C148.717 69.3355 148.332 70.1899 148.156 71.0955C148.052 71.7007 148.014 72.3154 148.043 72.9288C148.055 72.5794 148.093 72.2314 148.156 71.8875C148.332 70.9782 148.717 70.1275 148.934 69.2292C149.06 68.7337 149.1 68.2204 149.055 67.7112C149.032 67.9558 148.991 68.1985 148.934 68.4372Z" fill="black"/>
</g>
<path opacity="0.1" d="M48.662 278.878C68.3917 278.878 84.3858 276.309 84.3858 273.14C84.3858 269.971 68.3917 267.402 48.662 267.402C28.9322 267.402 12.9382 269.971 12.9382 273.14C12.9382 276.309 28.9322 278.878 48.662 278.878Z" fill="#16B97A"/>
<path d="M49.8131 163.215H47.5144V214.977H49.8131V163.215Z" fill="#535461"/>
<path d="M64.2581 214.819L64.1151 217.151L63.9098 220.451L63.8255 221.822L63.6239 225.122L63.5359 226.494L63.3306 229.794L61.0135 267.219C60.9128 268.829 60.2024 270.34 59.0268 271.445C57.8512 272.55 56.2988 273.165 54.6856 273.166H42.6383C41.0255 273.165 39.4735 272.55 38.2985 271.445C37.1235 270.34 36.4139 268.829 36.3141 267.219L34.008 229.768L33.8027 226.468L33.7184 225.097L33.5131 221.797L33.4287 220.425L33.2234 217.125L33.0768 214.794C33.0513 214.345 33.1178 213.895 33.2722 213.473C33.4266 213.051 33.6656 212.665 33.9745 212.338C34.2835 212.012 34.6559 211.752 35.069 211.574C35.482 211.397 35.9269 211.306 36.3764 211.307H61.0172C61.465 211.31 61.9072 211.406 62.3167 211.587C62.7261 211.769 63.094 212.032 63.3977 212.361C63.7014 212.691 63.9344 213.079 64.0824 213.501C64.2304 213.924 64.2902 214.372 64.2581 214.819Z" fill="#3F3D56"/>
<path d="M64.1151 217.151L63.9098 220.44H33.4141L33.2088 217.151H64.1151Z" fill="#9D9CB5"/>
<path d="M63.8255 221.811L63.6239 225.104H33.7037L33.4984 221.811H63.8255Z" fill="#9D9CB5"/>
<path d="M63.5359 226.479L63.3342 229.768H33.9933L33.788 226.479H63.5359Z" fill="#9D9CB5"/>
<path d="M29.7002 182.615C43.0856 192.303 48.673 207.453 48.673 207.453C48.673 207.453 32.5415 206.899 19.1524 197.212C5.76333 187.525 0.186981 172.378 0.186981 172.378C0.186981 172.378 16.3111 172.928 29.7002 182.615Z" fill="#16B97A"/>
<path d="M0.17598 172.378C0.17598 172.378 16.9233 181.673 22.2944 189.369C27.6654 197.065 48.673 207.453 48.673 207.453" stroke="#535461" stroke-width="2" stroke-miterlimit="10"/>
<path d="M38.3415 163.102C45.6263 168.371 48.6729 176.617 48.6729 176.617C48.6729 176.617 39.8923 176.316 32.6038 171.047C25.3154 165.778 22.276 157.528 22.276 157.528C22.276 157.528 31.053 157.829 38.3415 163.102Z" fill="#16B97A"/>
<path d="M22.276 157.528C22.276 157.528 31.3903 162.588 34.3123 166.776C37.2343 170.963 48.6729 176.617 48.6729 176.617" stroke="#535461" stroke-width="2" stroke-miterlimit="10"/>
<path d="M59.25 176.199C50.88 185.398 49.1092 197.421 49.1092 197.421C49.1092 197.421 60.9109 194.525 69.2735 185.321C77.6362 176.118 79.4144 164.099 79.4144 164.099C79.4144 164.099 67.6201 166.999 59.25 176.199Z" fill="#16B97A"/>
<path d="M79.4217 164.103C79.4217 164.103 68.5183 173.533 65.7466 180.03C62.9749 186.528 49.1092 197.421 49.1092 197.421" stroke="#535461" stroke-width="2" stroke-miterlimit="10"/>
<path d="M366.503 172.961C366.503 172.961 360.45 142.844 362.767 139.096C362.767 139.096 362.851 135.613 362.712 131.173C362.712 131.004 362.712 130.836 362.712 130.663C363.119 130.935 363.544 131.18 363.984 131.397C366.119 132.493 368.57 132.81 370.913 132.291L369.08 130.249C368.64 129.761 368.182 129.233 368.086 128.588C367.991 127.943 368.255 127.367 368.482 126.791C370.224 122.391 370.316 116.858 366.961 113.5C364.127 110.677 363.438 107.032 360.362 104.454C358.114 102.566 356.879 99.7977 355.713 97.1211C354.727 94.8588 353.733 92.5782 353.169 90.1802C352.729 88.3066 352.553 86.3669 351.948 84.5373C351.343 82.7077 350.21 80.9293 348.439 80.1117C347.809 79.822 347.108 79.657 346.533 79.272C345.777 78.7624 345.323 77.9337 344.777 77.2077C342.001 73.5411 332.707 75.7008 328.308 77.1894C327.112 77.5643 326.004 78.178 325.052 78.9934L325.093 78.9274C325.126 78.8724 325.166 78.8174 325.203 78.7624C324.721 79.1518 324.305 79.6161 323.971 80.1374C323.329 81.153 323.061 82.3373 322.526 83.4373C321.881 84.739 318.292 88.3726 319.835 89.8355C319.943 89.9338 320.067 90.0131 320.202 90.0702C320.781 90.3114 321.419 90.3752 322.035 90.2535L321.969 90.4112C321.442 91.702 321.172 93.0832 321.173 94.4775C321.173 100.502 326.141 105.386 332.275 105.386C333.428 105.387 334.574 105.21 335.673 104.861C335.699 105.001 335.721 105.14 335.747 105.279C335.747 105.334 335.765 105.389 335.772 105.444L335.578 105.716C335.568 105.699 335.557 105.683 335.545 105.668L329.789 113.712C328.909 114.332 323.842 117.999 323.556 120.749C323.256 123.759 322.955 127.283 322.955 127.283L322.915 128.038C322.663 128.248 322.369 128.401 322.053 128.487C321.736 128.572 321.405 128.588 321.082 128.533C319.285 128.24 319.285 135.133 319.285 135.133C319.285 135.133 318.09 136.233 317.269 135.279C316.448 134.326 314.277 137.556 314.277 137.556L300.675 138.143L300.364 138.161L299.631 135.892C299.552 135.652 299.381 135.454 299.157 135.339C298.932 135.224 298.672 135.203 298.432 135.279C298.375 135.298 298.32 135.321 298.267 135.349L298.215 135.378L298.12 135.444L298.072 135.488C298.046 135.512 298.022 135.538 297.999 135.565L297.955 135.617L297.933 135.639C297.848 135.756 297.792 135.891 297.769 136.034C297.746 136.176 297.757 136.322 297.801 136.46L298.432 138.407C295.807 138.935 293.123 140.424 295.312 144.523L284.218 142.473L287.807 145.487L306.336 149.312C306.09 149.752 306.252 150.39 307.018 151.288C310.318 155.163 316.33 156.216 318.75 156.487C319.389 157.917 320.187 159.27 321.129 160.52L320.92 164.381C320.92 164.381 314.794 193.81 313.672 195.302C314.239 194.66 314.757 193.977 315.223 193.26C313.445 199.306 310.959 207.581 310.307 208.821C309.258 210.801 308.287 218.812 309.482 219.325C309.848 219.483 310.897 219.406 312.393 219.292V219.956L312.327 245.105C312.327 245.105 312.627 260.531 311.802 262.001C310.978 263.471 310.758 266.555 310.758 266.555C310.758 266.555 307.458 272.638 304.844 275.084C304.826 275.103 304.806 275.12 304.785 275.135L304.705 274.563C304.705 274.563 301.563 278.53 294.611 278.306C294.611 278.306 290.428 281.027 296.632 281.174C302.835 281.32 310.758 280.954 310.758 280.954C310.758 280.954 316.29 272.521 320.924 273.621V280.011H322.343V273.518C323.001 273.085 323.564 272.522 323.998 271.865C324.432 271.208 324.729 270.469 324.869 269.694C324.99 268.895 324.901 268.078 324.611 267.323C324.32 266.569 323.838 265.904 323.212 265.393C322.93 265.138 322.705 264.829 322.549 264.483C322.393 264.137 322.31 263.763 322.306 263.383L322.255 263.427C322.255 263.299 322.222 263.167 322.207 263.031C321.8 259.731 321.291 252.923 323.091 247.885C325.558 240.977 326.306 231.356 324.51 225.628C323.93 223.798 323.454 221.936 323.083 220.051C323.039 219.813 322.999 219.586 322.962 219.373C324.19 219.539 325.406 219.784 326.603 220.106C330.764 221.254 339.867 221.467 347.64 221.404C347.658 221.617 347.68 221.841 347.706 222.064C347.844 223.619 348.134 225.157 348.571 226.655C349.546 229.588 349.994 242.52 349.994 242.52C349.994 242.52 351.251 253.154 350.566 257.48C350.199 259.885 349.832 262.302 349.623 264.729V264.777C349.623 264.777 347.563 270.643 346.056 273.83C346.019 273.91 345.979 273.991 345.942 274.068C345.541 274.104 345.145 274.192 344.766 274.328C344.766 274.328 342.745 278.361 340.733 279.029C338.72 279.696 339.387 281.892 343.944 281.086C348.501 280.279 355.383 279.619 355.383 279.619L355.68 275.505L357.08 273.753L356.714 277.855L358.206 277.562L358.008 272.572L360.299 269.705C360.299 269.705 363.067 267.241 358.954 262.393V262.5C358.91 262.43 358.87 262.357 358.822 262.287V262.265C358.14 261.209 357.597 259.24 358.591 255.746C360.387 249.432 361.432 243.701 361.432 243.701C361.432 243.701 365.443 228.349 360.622 221.085H360.835C360.341 220.063 359.991 218.977 359.797 217.859C359.773 217.727 359.751 217.591 359.731 217.452C363.298 217.246 366.8 216.601 369.656 215.208C369.645 215.193 367.925 178.762 366.503 172.961ZM321.214 147.552V147.625L320.48 147.662L321.214 147.552ZM318.699 147.9C318.578 147.927 318.465 147.981 318.369 148.058C318.053 148.504 317.855 149.022 317.793 149.565L316.649 149.308C316.649 149.308 315.846 149.136 314.691 148.941L314.145 148.391C315.648 148.267 317.21 148.083 318.699 147.9Z" fill="url(#paint1_linear_103_21)"/>
<path d="M356.545 272.623L356.109 277.819L357.572 277.525L357.352 271.89L356.545 272.623Z" fill="#1D2366"/>
<path d="M323.171 247.954C321.408 252.978 321.907 259.757 322.303 263.05C322.449 264.267 322.585 265.008 322.585 265.008C322.585 265.008 319.949 271.014 319.729 271.241C319.509 271.468 311.971 276.07 311.971 276.07L306.703 279.146C306.703 279.146 301.357 276.803 303.92 275.997C304.444 275.786 304.915 275.465 305.302 275.054C307.869 272.616 311.091 266.555 311.091 266.555C311.091 266.555 311.311 263.479 312.118 262.016C312.924 260.553 312.631 245.179 312.631 245.179L312.693 220.117V216.85L322.72 216.924C322.784 218.033 322.928 219.136 323.153 220.224C323.513 222.102 323.979 223.957 324.55 225.782C326.317 231.499 325.584 241.072 323.171 247.954Z" fill="#FFB0B1"/>
<path opacity="0.1" d="M322.585 265.008C322.585 265.008 319.949 271.014 319.729 271.241C319.509 271.468 311.971 276.07 311.971 276.07L306.703 279.146C306.703 279.146 301.357 276.803 303.92 275.997C304.444 275.786 304.915 275.465 305.302 275.054L305.529 276.657L307.286 276.583L322.317 263.057C322.449 264.267 322.585 265.008 322.585 265.008Z" fill="black"/>
<path d="M322.402 263.398L307.286 277.016L305.53 277.089L305.163 274.523C305.163 274.523 302.091 278.475 295.264 278.255C295.264 278.255 291.165 280.965 297.24 281.111C303.315 281.258 311.073 280.891 311.073 280.891C311.073 280.891 316.492 272.458 321.027 273.558V279.927H322.42V273.5C323.068 273.063 323.62 272.501 324.045 271.846C324.47 271.19 324.757 270.456 324.891 269.686C325.012 268.894 324.926 268.083 324.643 267.333C324.36 266.583 323.888 265.919 323.274 265.404C323 265.146 322.781 264.836 322.631 264.491C322.481 264.146 322.403 263.774 322.402 263.398Z" fill="#1D2366"/>
<path d="M357.938 255.786C356.963 259.269 357.495 261.231 358.162 262.283V262.305C359.018 263.605 359.613 265.058 359.914 266.584L359.973 266.914L353.095 276.943L349.363 278.409C349.363 278.409 343.361 276.36 344.458 275.773C344.733 275.63 345.162 274.867 345.653 273.815C347.119 270.643 349.143 264.791 349.143 264.791V264.744C349.356 262.327 349.693 259.918 350.067 257.52C350.738 253.205 349.506 242.612 349.506 242.612C349.506 242.612 349.066 229.731 348.113 226.802C347.682 225.312 347.396 223.785 347.259 222.24C347.061 220.407 347.017 218.896 347.017 218.896C347.017 218.896 350.969 213.397 358.213 219.336C358.793 219.81 359.302 220.363 359.727 220.979C364.732 228.1 360.703 243.785 360.703 243.785C360.703 243.785 359.694 249.491 357.938 255.786Z" fill="#FFB0B1"/>
<path opacity="0.1" d="M359.984 266.914L353.106 276.942L349.374 278.409C349.374 278.409 343.372 276.359 344.469 275.773C344.744 275.63 345.172 274.867 345.664 273.815C348.204 273.793 349.521 276.213 349.521 276.213L352.74 275.699C352.74 275.699 356.985 267.354 357.938 266.845C358.892 266.335 358.085 263.035 358.085 263.035V262.195C358.111 262.225 358.133 262.258 358.162 262.287V262.309C359.018 263.608 359.613 265.062 359.914 266.588L359.984 266.914Z" fill="black"/>
<path d="M349.741 276.429C349.741 276.429 347.908 273.063 344.395 274.306C344.395 274.306 342.419 278.339 340.443 278.992C338.467 279.645 339.127 281.845 343.592 281.042C348.058 280.239 354.789 279.575 354.789 279.575L355.082 275.472L359.621 269.69C359.621 269.69 362.327 267.237 358.301 262.408V263.248C358.301 263.248 359.108 266.548 358.155 267.057C357.201 267.567 352.971 275.916 352.971 275.916L349.741 276.429Z" fill="#1D2366"/>
<path opacity="0.1" d="M322.731 216.916C322.795 218.026 322.939 219.129 323.164 220.216C319.036 219.611 315.205 219.912 312.693 220.11V216.843L322.731 216.916Z" fill="black"/>
<path opacity="0.1" d="M360.134 221.892C360.134 221.892 354.268 222.178 347.273 222.237C347.075 220.403 347.031 218.893 347.031 218.893C347.031 218.893 350.983 213.393 358.228 219.333C358.807 219.807 359.317 220.359 359.742 220.975C359.856 221.288 359.987 221.594 360.134 221.892Z" fill="black"/>
<path d="M360.134 221.232C360.134 221.232 334.441 222.475 326.61 220.279C318.779 218.082 311.018 219.985 309.848 219.476C308.679 218.966 309.628 210.984 310.655 209.008C311.681 207.031 317.313 187.045 317.313 187.045L322.731 158.79L328.44 157.217L328.843 157.103L338.79 154.36L346.078 152.348C346.078 152.348 360.571 208.934 359.328 213.107C358.876 214.705 358.804 216.386 359.115 218.016C359.305 219.13 359.648 220.212 360.134 221.232Z" fill="#1D2366"/>
<path d="M303.843 139.467C303.843 139.467 298.71 144.967 302.597 148.032C306.483 151.097 309.038 148.325 309.038 148.325L303.843 139.467Z" fill="#C7DAF5"/>
<path opacity="0.1" d="M303.843 139.467C303.843 139.467 298.71 144.967 302.597 148.032C306.483 151.097 309.038 148.325 309.038 148.325L303.843 139.467Z" fill="black"/>
<path d="M345.312 103.307C345.312 103.307 344.711 103.879 343.805 104.722C342.514 105.928 340.604 107.692 338.911 109.17C336.564 111.212 334.628 112.711 335.321 111.432C336.014 110.152 335.882 107.923 335.538 105.837C335.512 105.697 335.49 105.558 335.464 105.422C335.179 103.89 334.801 102.377 334.331 100.89C334.331 100.89 338.122 95.9918 340.219 94.0595C341 93.3261 341.547 93.0255 341.58 93.5351C341.616 94.2208 342.13 95.7351 342.767 97.3411C342.786 97.3924 342.804 97.4401 342.826 97.4914C343.251 98.5914 343.732 99.7207 344.153 100.696C344.799 102.192 345.312 103.307 345.312 103.307Z" fill="#FFB0B1"/>
<path opacity="0.1" d="M342.826 97.4914C342.47 99.4077 341.605 101.193 340.323 102.661C339.041 104.129 337.388 105.226 335.538 105.837C335.246 104.163 334.843 102.51 334.331 100.89C334.331 100.89 341.47 91.6688 341.58 93.5351C341.605 94.2428 342.163 95.8121 342.826 97.4914Z" fill="black"/>
<path opacity="0.1" d="M334.826 108.301L335.75 106.999C335.75 106.999 336.363 110.732 338.614 109.085C340.865 107.439 340.975 121.475 340.975 121.475L338.559 157.602L321.1 156.557L321.595 139.1L323.571 130.3L328.458 117.507L331.365 113.28L334.826 108.301Z" fill="black"/>
<path d="M340.975 121.698L338.775 154.364L338.544 157.825L328.81 157.242L328.443 157.22L321.111 156.78L321.606 139.32L323.582 130.52L328.469 117.727L331.376 113.5L334.837 108.502L335.761 107.204C335.761 107.204 336.374 110.937 338.625 109.291L338.672 109.258C340.872 107.864 340.975 121.698 340.975 121.698Z" fill="#1D2366"/>
<path d="M323.828 127.462C323.828 127.462 322.951 129.296 321.192 128.999C319.432 128.702 319.436 135.598 319.436 135.598C319.436 135.598 318.266 136.698 317.459 135.745C316.653 134.792 314.526 138.015 314.526 138.015L301.203 138.601C301.203 138.601 307.132 141.311 305.969 149.51C305.969 149.51 326.097 148.263 326.757 146.36C327.417 144.457 323.828 127.462 323.828 127.462Z" fill="white"/>
<path opacity="0.03" d="M323.828 127.462C323.828 127.462 322.951 129.296 321.192 128.999C319.432 128.702 319.436 135.598 319.436 135.598C319.436 135.598 318.266 136.698 317.459 135.745C316.653 134.792 314.526 138.015 314.526 138.015L301.203 138.601C301.203 138.601 307.132 141.311 305.969 149.51C305.969 149.51 326.097 148.263 326.757 146.36C327.417 144.457 323.828 127.462 323.828 127.462Z" fill="black"/>
<path d="M285.109 142.91L288.621 145.909L317.533 151.985L313.947 148.325L285.109 142.91Z" fill="white"/>
<path d="M334.881 109.456C334.401 110.189 333.026 113.943 331.879 117.221C330.922 119.953 330.123 122.355 330.123 122.355C330.123 122.355 328.257 134.506 327.303 136.702C326.35 138.898 326.867 147.464 326.867 147.464L323.314 168.616C323.314 168.616 321.705 179.524 319.219 186.04C316.767 192.453 314.035 195.459 313.951 195.555C315.051 194.066 321.045 164.755 321.045 164.755L323.025 127.789C323.025 127.789 323.314 124.276 323.608 121.273C323.901 118.27 329.84 114.171 329.84 114.171L335.567 106.027C336.143 106.797 335.758 108.139 334.881 109.456Z" fill="white"/>
<path d="M319.949 156.964C319.949 156.964 311.516 156.597 307.432 151.691C303.348 146.785 316.873 149.733 316.873 149.733L320.389 150.54L319.949 156.964Z" fill="#FFB0B1"/>
<path opacity="0.1" d="M359.328 213.111C358.877 214.708 358.804 216.389 359.115 218.02C349.917 218.673 340.076 216.187 340.076 216.187C338.243 217.873 333.415 220.359 333.415 220.359L330.783 187.727C329.1 183.327 328.44 160.275 328.44 160.275C328.44 160.275 328.59 159.068 328.806 157.261C328.806 157.217 328.806 157.169 328.825 157.125C329.481 152.076 330.783 142.598 331.42 141.318C332.3 139.558 328.715 134.876 328.715 134.876L330.346 120.961L330.544 119.282C333.983 117.746 336.619 112.84 336.619 112.84L338.643 109.294C340.843 107.883 340.956 121.717 340.956 121.717L338.757 154.382L346.045 152.37C346.045 152.37 360.571 208.938 359.328 213.111Z" fill="black"/>
<path d="M368.768 215.366C358.741 220.345 340.516 215.732 340.516 215.732C338.683 217.419 333.855 219.905 333.855 219.905L331.219 187.272C329.54 182.872 328.88 159.82 328.88 159.82C328.88 159.82 330.999 142.62 331.879 140.864C332.135 140.35 332.011 139.588 331.706 138.766C330.21 134.857 329.66 130.649 330.101 126.487L330.805 120.507L330.999 118.831C334.441 117.291 337.077 112.385 337.077 112.385L338.911 109.173L342.283 103.255L343.882 100.454L344.153 100.7L346.225 102.577C346.225 102.577 347.105 103.31 348.424 104.41C351.295 106.83 356.256 111.091 358.815 113.698C361.066 115.993 361.777 124.921 361.982 131.642C362.118 136.068 362.037 139.536 362.037 139.536C359.768 143.273 365.703 173.269 365.703 173.269C367.086 179.066 368.768 215.366 368.768 215.366Z" fill="white"/>
<path opacity="0.03" d="M349.521 112.312C349.521 112.312 342.639 125.413 343.438 130.392C344.238 135.371 346.511 141.007 345.415 142.323C345.038 142.822 344.551 143.227 343.992 143.506C343.433 143.785 342.817 143.931 342.192 143.933C341.092 144.006 338.159 146.056 338.159 146.276C338.159 146.496 335.45 146.496 333.026 147.522C330.603 148.549 327.025 149.132 327.025 149.132C327.025 149.132 320.059 148.912 319.41 149.572C318.761 150.232 318.094 154.181 319.483 157.33C320.873 160.48 322.416 162.83 323.582 163.259C324.748 163.688 332.146 161.21 338.148 160.623C344.15 160.036 350.665 155.281 350.665 155.281C350.665 155.281 357.839 152.714 359.097 148.399C360.354 144.083 357.561 120.364 357.561 120.364C357.561 120.364 355.449 109.309 349.521 112.312Z" fill="black"/>
<path opacity="0.03" d="M348.641 111.212C348.641 111.212 341.759 124.316 342.566 129.292C343.372 134.267 345.638 139.907 344.538 141.227C344.163 141.726 343.677 142.131 343.118 142.411C342.56 142.69 341.944 142.836 341.319 142.836C340.219 142.91 337.286 144.959 337.286 145.179C337.286 145.399 334.577 145.399 332.154 146.422C329.73 147.445 326.152 148.032 326.152 148.032C326.152 148.032 319.186 147.812 318.541 148.472C317.896 149.132 317.221 153.085 318.614 156.23C320.007 159.376 321.547 161.73 322.713 162.159C323.879 162.588 331.277 160.11 337.279 159.527C343.281 158.944 349.796 154.181 349.796 154.181C349.796 154.181 356.967 151.614 358.21 147.302C359.453 142.99 356.673 119.264 356.673 119.264C356.673 119.264 354.569 108.213 348.641 111.212Z" fill="black"/>
<path d="M349.304 111.652C349.304 111.652 342.423 124.756 343.229 129.732C344.036 134.707 346.302 140.347 345.205 141.663C344.83 142.163 344.344 142.57 343.784 142.85C343.225 143.13 342.608 143.276 341.983 143.276C340.883 143.35 337.95 145.399 337.95 145.616C337.95 145.832 335.244 145.836 332.817 146.862C330.39 147.889 326.816 148.472 326.816 148.472C326.816 148.472 319.85 148.252 319.201 148.912C318.552 149.572 317.885 153.525 319.274 156.67C320.664 159.816 322.207 162.17 323.373 162.599C324.539 163.028 331.937 160.55 337.939 159.963C343.941 159.376 350.456 154.621 350.456 154.621C350.456 154.621 357.63 152.054 358.888 147.739C360.145 143.423 357.37 119.704 357.37 119.704C357.37 119.704 355.229 108.667 349.304 111.652Z" fill="white"/>
<path opacity="0.1" d="M349.154 146.8C349.154 146.8 343.655 145.7 345.568 147.533C347.482 149.367 347.471 150.973 349.814 150.899C352.157 150.826 349.154 146.8 349.154 146.8Z" fill="black"/>
<path opacity="0.1" d="M358.448 186.245C358.448 186.245 355.962 187.928 360.717 191.808C365.472 195.687 358.448 186.245 358.448 186.245Z" fill="black"/>
<path opacity="0.1" d="M353.704 200.079C353.704 200.299 352.824 208.146 356.116 210.108C359.409 212.069 353.704 200.079 353.704 200.079Z" fill="black"/>
<path d="M301.431 138.583C298.776 138.675 293.042 139.485 296.016 145.033C298.644 149.942 303.062 146.661 305.548 144.171C304.941 141.85 303.468 139.85 301.431 138.583Z" fill="#FFB0B1"/>
<path opacity="0.1" d="M348.424 104.634C345.609 106.559 343.248 108.183 342.786 108.521C341.525 109.456 339.12 114.944 337.569 117.746C336.333 120.001 332.319 120.58 330.805 120.723L330.999 119.047C334.441 117.507 337.077 112.601 337.077 112.601L343.882 100.67L346.225 102.801C346.225 102.801 347.105 103.534 348.424 104.634Z" fill="black"/>
<path d="M348.424 104.414C345.609 106.339 343.248 107.963 342.786 108.304C341.525 109.236 339.12 114.724 337.569 117.526C336.333 119.781 332.319 120.36 330.805 120.503L330.999 118.827C334.441 117.287 337.077 112.382 337.077 112.382L343.882 100.45L346.225 102.573C346.225 102.573 347.105 103.299 348.424 104.414Z" fill="#DCE7FF"/>
<path d="M343.006 95.0715C343.007 97.2725 342.34 99.422 341.092 101.235C339.618 103.379 337.425 104.923 334.91 105.588C332.395 106.252 329.725 105.993 327.385 104.858C325.045 103.722 323.189 101.785 322.155 99.3983C321.12 97.0114 320.975 94.3327 321.747 91.8482C322.518 89.3638 324.155 87.2382 326.359 85.8572C328.563 84.4761 331.19 83.9311 333.762 84.3211C336.333 84.711 338.68 86.01 340.376 87.9824C342.072 89.9549 343.005 92.47 343.006 95.0715Z" fill="#FFB0B1"/>
<path opacity="0.1" d="M361.982 131.646C360.493 130.73 359.281 129.427 358.474 127.877C357.861 126.667 357.454 125.27 356.41 124.412C355.467 123.642 354.21 123.455 353.037 123.11C349.18 121.97 345.946 118.45 345.825 114.431C345.766 112.539 346.357 110.651 346.089 108.777C345.937 107.717 345.515 106.713 344.865 105.862C344.541 105.455 344.187 105.074 343.805 104.722C343.292 104.238 342.753 103.769 342.284 103.255C341.988 102.937 341.73 102.587 341.514 102.21C341.339 101.902 341.198 101.577 341.092 101.239C340.359 98.9947 341.026 96.3328 340.219 94.0631L340.175 93.9385C339.871 93.1318 339.252 92.3252 338.39 92.2628C337.528 92.2005 336.791 92.9155 335.97 93.2345C334.251 93.9018 332.396 92.7652 330.962 91.6065C329.529 90.4479 327.912 89.1242 326.09 89.3809C324.884 89.5532 323.93 90.3745 322.819 90.7998C322.569 90.897 322.31 90.9718 322.046 91.0235C322.986 88.6788 324.713 86.7346 326.931 85.5251C329.149 84.3156 331.718 83.9163 334.198 84.3957C336.678 84.8751 338.914 86.2033 340.521 88.1522C342.129 90.101 343.007 92.5489 343.006 95.0751C343.007 95.838 342.927 96.5988 342.767 97.3447C342.786 97.3961 342.804 97.4437 342.826 97.4951C343.251 98.5951 343.732 99.7244 344.153 100.7L346.225 102.577C346.225 102.577 347.105 103.31 348.424 104.41C351.295 106.83 356.256 111.091 358.815 113.698C361.066 116 361.77 124.925 361.982 131.646Z" fill="black"/>
<path d="M322.691 84.101C323.215 83.034 323.476 81.8387 324.103 80.8267C325.023 79.3601 326.629 78.4214 328.278 77.8531C332.586 76.3681 341.69 74.2121 344.41 77.8531C344.945 78.5864 345.389 79.4004 346.129 79.9064C346.694 80.2914 347.376 80.4564 347.996 80.746C349.73 81.56 350.837 83.3347 351.427 85.146C352.017 86.9573 352.193 88.9006 352.626 90.7669C353.18 93.1612 354.151 95.4308 355.119 97.6858C356.259 100.348 357.469 103.109 359.669 104.99C362.671 107.556 363.335 111.19 366.121 114.006C369.421 117.35 369.315 122.868 367.614 127.25C367.39 127.825 367.137 128.427 367.225 129.039C367.313 129.651 367.768 130.209 368.196 130.696L370 132.731C365.733 133.762 360.904 131.532 358.917 127.62C358.305 126.41 357.898 125.017 356.849 124.155C355.911 123.385 354.65 123.202 353.48 122.857C349.623 121.713 346.39 118.189 346.269 114.171C346.21 112.283 346.8 110.394 346.533 108.524C346.384 107.457 345.961 106.446 345.304 105.591C344.296 104.275 342.775 103.391 341.954 101.924C340.564 99.4714 341.62 96.2851 340.619 93.6525C340.311 92.8458 339.695 92.0392 338.834 91.9769C337.972 91.9145 337.235 92.6295 336.41 92.9485C334.694 93.6158 332.839 92.4828 331.406 91.3205C329.972 90.1582 328.355 88.8382 326.53 89.0986C325.324 89.2672 324.374 90.0885 323.263 90.5175C322.442 90.8329 320.777 91.1152 320.059 90.4222C318.541 89.0252 322.057 85.4063 322.691 84.101Z" fill="#591D4B"/>
<path opacity="0.1" d="M359.936 126.41C359.32 125.2 358.917 123.807 357.869 122.949C356.93 122.179 355.669 121.992 354.496 121.647C350.642 120.507 347.409 116.983 347.284 112.964C347.226 111.076 347.816 109.184 347.552 107.314C347.398 106.254 346.975 105.25 346.324 104.399C345.312 103.083 343.79 102.199 342.973 100.733C341.583 98.2834 342.639 95.0971 341.635 92.4608C341.33 91.6578 340.711 90.8512 339.853 90.7852C338.995 90.7192 338.251 91.4415 337.429 91.7605C335.714 92.4278 333.855 91.2912 332.425 90.1325C330.995 88.9739 329.371 87.6502 327.549 87.9069C326.343 88.0792 325.389 88.9005 324.282 89.3259C323.461 89.6412 321.793 89.9272 321.074 89.2342C319.564 87.7676 323.08 84.1559 323.71 82.858C324.235 81.7873 324.495 80.5957 325.125 79.5837C325.158 79.5287 325.195 79.4737 325.232 79.4187C324.76 79.8095 324.353 80.2723 324.026 80.79C323.399 81.802 323.138 82.99 322.614 84.0643C321.98 85.3623 318.464 88.9849 319.978 90.4405C320.711 91.1372 322.361 90.8512 323.182 90.5358C324.282 90.1069 325.243 89.2855 326.449 89.1169C328.282 88.8565 329.895 90.1802 331.325 91.3388C332.755 92.4975 334.625 93.6341 336.333 92.9668C337.154 92.6478 337.873 91.9292 338.753 91.9952C339.633 92.0612 340.219 92.8641 340.538 93.6708C341.539 96.3034 340.483 99.4897 341.873 101.943C342.694 103.384 344.216 104.286 345.224 105.609C345.88 106.464 346.303 107.475 346.452 108.543C346.72 110.413 346.129 112.301 346.188 114.189C346.309 118.222 349.543 121.731 353.4 122.875C354.562 123.22 355.83 123.403 356.769 124.173C357.821 125.035 358.235 126.428 358.837 127.638C360.824 131.551 365.652 133.78 369.92 132.749L369.069 131.789C365.37 131.844 361.627 129.739 359.936 126.41Z" fill="black"/>
<path opacity="0.1" d="M334.661 109.676C334.181 110.409 332.806 114.163 331.659 117.441C330.585 117.023 329.609 114.358 329.609 114.358L335.336 106.211C335.923 107.017 335.538 108.356 334.661 109.676Z" fill="black"/>
<path d="M334.881 109.456C334.401 110.189 333.026 113.943 331.879 117.221C330.805 116.807 329.829 114.138 329.829 114.138L335.556 105.994C336.143 106.797 335.758 108.139 334.881 109.456Z" fill="#DCE7FF"/>
<path d="M301.585 146.914L298.41 136.9C298.372 136.783 298.358 136.659 298.368 136.537C298.379 136.414 298.413 136.295 298.469 136.185C298.526 136.076 298.604 135.979 298.698 135.899C298.792 135.82 298.901 135.76 299.018 135.723C299.255 135.649 299.51 135.672 299.73 135.786C299.95 135.9 300.116 136.096 300.191 136.332L303.366 146.334L303.051 148.428L301.585 146.914Z" fill="#BE8B87"/>
<path opacity="0.1" d="M298.71 136.02C298.947 135.945 299.204 135.967 299.424 136.081C299.645 136.195 299.811 136.392 299.887 136.629L303.062 146.631L302.824 148.201L303.055 148.443L303.37 146.349L300.177 136.346C300.101 136.111 299.935 135.915 299.715 135.801C299.496 135.687 299.24 135.664 299.004 135.738C298.805 135.802 298.633 135.931 298.516 136.104C298.578 136.071 298.643 136.043 298.71 136.02Z" fill="white"/>
<path d="M301.585 146.914L303.366 146.349L303.106 148.065L303.051 148.443L302.531 147.9L301.585 146.914Z" fill="#EFC8C4"/>
<path d="M302.531 147.9C302.562 147.861 302.6 147.828 302.644 147.805C302.67 147.788 302.7 147.78 302.73 147.78C302.761 147.78 302.791 147.788 302.816 147.805C302.841 147.835 302.862 147.868 302.879 147.904C302.903 147.944 302.936 147.979 302.975 148.005C303.015 148.031 303.059 148.047 303.106 148.054L303.051 148.421L302.531 147.9Z" fill="#727A9C"/>
<path d="M298.391 140.457C298.391 140.457 304.76 140.42 303.26 143.13C301.761 145.839 299.418 146.166 299.418 146.166L298.391 140.457Z" fill="#FFB0B1"/>
<path d="M258.785 18.8537H258.51C247.57 18.8537 237.895 24.6433 232.329 33.1865C226.764 24.6433 217.089 18.8537 206.149 18.8537H205.874C197.664 18.9319 189.816 22.2475 184.036 28.0799C178.257 33.9123 175.012 41.7901 175.008 50.0015C175.008 60.1984 179.473 74.6668 188.181 86.5723C204.77 109.258 232.329 129.105 232.329 129.105C232.329 129.105 259.889 109.261 276.475 86.5723C285.186 74.6668 289.647 60.1984 289.647 50.0015C289.643 41.7908 286.399 33.9134 280.62 28.0812C274.841 22.2489 266.995 18.9329 258.785 18.8537ZM254.851 88.3176C253.605 88.3128 252.39 87.9314 251.365 87.2234C250.339 86.5154 249.552 85.5139 249.106 84.3503H242.566C242.135 84.3476 241.716 84.2105 241.367 83.9581C241.018 83.7057 240.756 83.3506 240.619 82.9423L238.61 76.8888L232.252 99.1047C232.129 99.5324 231.869 99.9083 231.514 100.176C231.158 100.444 230.725 100.589 230.28 100.59H230.152C229.687 100.567 229.244 100.386 228.897 100.076C228.55 99.7668 228.32 99.3474 228.245 98.8884L221.694 59.4797L216.906 82.7993C216.796 83.2423 216.541 83.6358 216.181 83.9169C215.822 84.198 215.378 84.3506 214.922 84.3503H205.709C205.433 84.362 205.157 84.3177 204.898 84.22C204.64 84.1224 204.404 83.9734 204.204 83.7821C204.004 83.5908 203.846 83.3611 203.737 83.1068C203.629 82.8526 203.573 82.579 203.573 82.3025C203.573 82.026 203.629 81.7524 203.737 81.4982C203.846 81.2439 204.004 81.0142 204.204 80.8229C204.404 80.6316 204.64 80.4826 204.898 80.385C205.157 80.2873 205.433 80.243 205.709 80.2547H213.309L220.092 48.9015C220.203 48.438 220.472 48.0275 220.852 47.7403C221.233 47.4531 221.701 47.3069 222.177 47.3268C222.654 47.3467 223.108 47.5315 223.463 47.8495C223.818 48.1675 224.052 48.599 224.124 49.0702L230.815 89.2709L236.513 69.3942C236.631 68.9756 236.882 68.6066 237.228 68.3422C237.573 68.0779 237.995 67.9324 238.43 67.9276H238.47C238.901 67.9277 239.321 68.0639 239.67 68.3167C240.019 68.5696 240.279 68.9261 240.413 69.3355L244.047 80.2657H249.025C249.379 79.1902 250.024 78.2333 250.887 77.5008C251.75 76.7683 252.799 76.2886 253.918 76.1147C255.037 75.9408 256.182 76.0794 257.227 76.5152C258.272 76.951 259.176 77.6671 259.84 78.5844C260.504 79.5017 260.901 80.5846 260.988 81.7136C261.076 82.8425 260.849 83.9736 260.334 84.9821C259.819 85.9905 259.036 86.837 258.07 87.4282C257.104 88.0194 255.994 88.3322 254.862 88.3322L254.851 88.3176Z" fill="#16B97A"/>
</g>
<defs>
<linearGradient id="paint0_linear_103_21" x1="130.639" y1="284.114" x2="130.639" y2="58.4934" gradientUnits="userSpaceOnUse">
<stop stop-color="#808080" stop-opacity="0.25"/>
<stop offset="0.54" stop-color="#808080" stop-opacity="0.12"/>
<stop offset="1" stop-color="#808080" stop-opacity="0.1"/>
</linearGradient>
<linearGradient id="paint1_linear_103_21" x1="327.553" y1="281.262" x2="327.553" y2="75.1985" gradientUnits="userSpaceOnUse">
<stop stop-color="#808080" stop-opacity="0.25"/>
<stop offset="0.54" stop-color="#808080" stop-opacity="0.12"/>
<stop offset="1" stop-color="#808080" stop-opacity="0.1"/>
</linearGradient>
<clipPath id="clip0_103_21">
<rect width="405.134" height="287" fill="white"/>
</clipPath>
</defs>
</svg>
