<svg width="383" height="563" viewBox="0 0 383 563" fill="none" xmlns="http://www.w3.org/2000/svg">
<path fill-rule="evenodd" clip-rule="evenodd" d="M356.144 289.357C373.202 260.719 383 227.254 383 191.5C383 85.7375 297.263 0 191.5 0C85.7375 0 0 85.7375 0 191.5C0 229.337 10.9732 264.611 29.9109 294.313L181.276 556.748C185.892 564.752 197.443 564.755 202.063 556.753L356.444 289.356L356.144 289.357Z" fill="#D50000"/>
<path d="M170 134.833C170 105.102 194.102 81 223.833 81V81C253.564 81 277.665 105.102 277.665 134.833V244.167C277.665 273.898 253.564 298 223.833 298V298C194.102 298 170 273.898 170 244.167V134.833Z" fill="white"/>
<path fill-rule="evenodd" clip-rule="evenodd" d="M180.015 181.989V181.989V244.585C180.015 269.015 199.82 288.819 224.25 288.819C248.68 288.819 268.485 269.015 268.485 244.585V181.989H180.015Z" fill="#D50000"/>
<circle cx="149.5" cy="223.5" r="64.5" fill="white"/>
<path fill-rule="evenodd" clip-rule="evenodd" d="M185.36 261.119C195.36 251.522 201.586 238.021 201.586 223.067C201.586 193.944 177.977 170.335 148.854 170.335C133.954 170.335 120.498 176.514 110.908 186.45L185.36 261.119Z" fill="#D50000"/>
</svg>
